<?xml version="1.0" encoding="UTF-8"?>
<svg version="1.1" xmlns="http://www.w3.org/2000/svg" width="500" height="500">
<path d="M0 0 C2.38098762 2.13817762 4.72462058 4.31132019 7.06640625 6.4921875 C8.41646789 7.66360204 9.77048139 8.8304817 11.12890625 9.9921875 C19.30467088 17.15008585 26.32403632 24.98659911 33.06640625 33.4921875 C33.94046748 34.56456793 34.81549915 35.63615798 35.69140625 36.70703125 C61.72165356 68.80339311 78.41334549 106.96507794 86.06640625 147.4921875 C86.23011719 148.31219238 86.39382813 149.13219727 86.5625 149.97705078 C91.85669079 177.49262295 91.74199609 210.05762025 86.06640625 237.4921875 C85.86772949 238.46994141 85.66905273 239.44769531 85.46435547 240.45507812 C77.35107371 279.22866434 61.79653467 315.37570723 37.06640625 346.4921875 C36.36257813 347.38808594 35.65875 348.28398437 34.93359375 349.20703125 C-4.99569144 399.08285881 -63.42547057 432.97412702 -127.00244141 441.46020508 C-187.31389329 448.1210763 -249.41372456 436.13636081 -299.93359375 401.4921875 C-300.54235352 401.07727051 -301.15111328 400.66235352 -301.77832031 400.23486328 C-314.73809233 391.34083504 -326.53785043 381.2958939 -337.93359375 370.4921875 C-339.06474609 369.42484375 -339.06474609 369.42484375 -340.21875 368.3359375 C-345.60768051 363.10771068 -350.26561685 357.36309524 -354.93359375 351.4921875 C-355.80914299 350.41865639 -356.68546792 349.34575753 -357.5625 348.2734375 C-364.72047585 339.44526728 -371.02874082 330.20012936 -376.93359375 320.4921875 C-377.36027344 319.7914209 -377.78695312 319.0906543 -378.2265625 318.36865234 C-392.16838705 295.14478999 -401.11488563 269.53259616 -406.74609375 243.1171875 C-406.94114502 242.20388672 -407.13619629 241.29058594 -407.3371582 240.34960938 C-410.48463652 224.67747206 -411.34431102 209.18934308 -411.30859375 193.2421875 C-411.30771759 192.28096985 -411.30684143 191.3197522 -411.30593872 190.32940674 C-411.19195677 152.22946 -403.09821802 115.61453363 -385.93359375 81.4921875 C-385.55299805 80.73373535 -385.17240234 79.9752832 -384.78027344 79.19384766 C-372.56989419 55.03979721 -356.52657205 34.10405035 -337.93359375 14.4921875 C-336.86625 13.36103516 -336.86625 13.36103516 -335.77734375 12.20703125 C-330.55031899 6.81933974 -324.81683677 2.1429725 -318.93359375 -2.5078125 C-317.94488281 -3.301875 -316.95617187 -4.0959375 -315.9375 -4.9140625 C-287.57458625 -27.29279095 -254.87846283 -42.62198301 -219.93359375 -51.5078125 C-218.74121094 -51.81332031 -217.54882812 -52.11882813 -216.3203125 -52.43359375 C-212.87062259 -53.23920996 -209.42267815 -53.89466796 -205.93359375 -54.5078125 C-204.88461914 -54.71083984 -204.88461914 -54.71083984 -203.81445312 -54.91796875 C-132.59878829 -68.32753414 -54.8661818 -46.9029144 0 0 Z " fill="#FDFDFC" transform="translate(410.93359375,57.5078125)"/>
<path d="M0 0 C2.38098762 2.13817762 4.72462058 4.31132019 7.06640625 6.4921875 C8.41646789 7.66360204 9.77048139 8.8304817 11.12890625 9.9921875 C19.30467088 17.15008585 26.32403632 24.98659911 33.06640625 33.4921875 C33.94046748 34.56456793 34.81549915 35.63615798 35.69140625 36.70703125 C61.72165356 68.80339311 78.41334549 106.96507794 86.06640625 147.4921875 C86.23011719 148.31219238 86.39382813 149.13219727 86.5625 149.97705078 C91.85669079 177.49262295 91.74199609 210.05762025 86.06640625 237.4921875 C85.86772949 238.46994141 85.66905273 239.44769531 85.46435547 240.45507812 C77.35107371 279.22866434 61.79653467 315.37570723 37.06640625 346.4921875 C36.36257813 347.38808594 35.65875 348.28398437 34.93359375 349.20703125 C-4.99569144 399.08285881 -63.42547057 432.97412702 -127.00244141 441.46020508 C-187.31389329 448.1210763 -249.41372456 436.13636081 -299.93359375 401.4921875 C-300.54235352 401.07727051 -301.15111328 400.66235352 -301.77832031 400.23486328 C-314.73809233 391.34083504 -326.53785043 381.2958939 -337.93359375 370.4921875 C-339.06474609 369.42484375 -339.06474609 369.42484375 -340.21875 368.3359375 C-345.60768051 363.10771068 -350.26561685 357.36309524 -354.93359375 351.4921875 C-355.80914299 350.41865639 -356.68546792 349.34575753 -357.5625 348.2734375 C-364.72047585 339.44526728 -371.02874082 330.20012936 -376.93359375 320.4921875 C-377.36027344 319.7914209 -377.78695312 319.0906543 -378.2265625 318.36865234 C-392.16838705 295.14478999 -401.11488563 269.53259616 -406.74609375 243.1171875 C-406.94114502 242.20388672 -407.13619629 241.29058594 -407.3371582 240.34960938 C-410.48463652 224.67747206 -411.34431102 209.18934308 -411.30859375 193.2421875 C-411.30771759 192.28096985 -411.30684143 191.3197522 -411.30593872 190.32940674 C-411.19195677 152.22946 -403.09821802 115.61453363 -385.93359375 81.4921875 C-385.55299805 80.73373535 -385.17240234 79.9752832 -384.78027344 79.19384766 C-372.56989419 55.03979721 -356.52657205 34.10405035 -337.93359375 14.4921875 C-336.86625 13.36103516 -336.86625 13.36103516 -335.77734375 12.20703125 C-330.55031899 6.81933974 -324.81683677 2.1429725 -318.93359375 -2.5078125 C-317.94488281 -3.301875 -316.95617187 -4.0959375 -315.9375 -4.9140625 C-287.57458625 -27.29279095 -254.87846283 -42.62198301 -219.93359375 -51.5078125 C-218.74121094 -51.81332031 -217.54882812 -52.11882813 -216.3203125 -52.43359375 C-212.87062259 -53.23920996 -209.42267815 -53.89466796 -205.93359375 -54.5078125 C-204.88461914 -54.71083984 -204.88461914 -54.71083984 -203.81445312 -54.91796875 C-132.59878829 -68.32753414 -54.8661818 -46.9029144 0 0 Z M-206.99609375 -10.8828125 C-208.03902588 -10.62701416 -209.08195801 -10.37121582 -210.15649414 -10.10766602 C-217.82145755 -8.17000099 -225.36248765 -5.91783746 -232.87109375 -3.4453125 C-233.83474854 -3.12933105 -234.79840332 -2.81334961 -235.79125977 -2.48779297 C-241.32494218 -0.6014971 -246.49631584 1.63127355 -251.67114258 4.35375977 C-253.96737251 5.50918441 -256.28120007 6.45602491 -258.68359375 7.3671875 C-270.16167785 11.88994905 -279.72773979 17.21945338 -288.93359375 25.4921875 C-289.77535156 26.23726562 -290.61710937 26.98234375 -291.484375 27.75 C-293.15696546 29.24310564 -294.82110108 30.74573751 -296.4765625 32.2578125 C-298.08823838 33.72343826 -299.71551957 35.17212299 -301.359375 36.6015625 C-326.31179178 58.41005436 -347.92848588 88.18308216 -358.93359375 119.4921875 C-359.59207386 121.12052204 -360.25841873 122.74570419 -360.93359375 124.3671875 C-361.60396295 126.07407132 -362.27039785 127.78250378 -362.93359375 129.4921875 C-363.32417969 130.44867188 -363.71476562 131.40515625 -364.1171875 132.390625 C-380.05558816 174.99233143 -376.68338669 230.30312623 -357.93359375 271.4921875 C-355.69967854 276.14872764 -353.38944068 280.75964641 -351.02783203 285.35253906 C-349.94891784 287.46222313 -348.89168673 289.58177354 -347.8359375 291.703125 C-339.87290617 307.47770208 -329.60426865 321.280771 -317.93359375 334.4921875 C-317.19753906 335.35070312 -316.46148437 336.20921875 -315.703125 337.09375 C-289.20517865 367.50122942 -254.33448 384.58937108 -215.99609375 395.1171875 C-214.42480713 395.551521 -214.42480713 395.551521 -212.82177734 395.99462891 C-197.79122661 400.02642402 -184.01811779 401.97102492 -168.49633789 401.82836914 C-165.73879961 401.80462469 -162.98222533 401.80785537 -160.22460938 401.81445312 C-150.60456215 401.79928679 -141.40733434 401.32595132 -131.93359375 399.4921875 C-130.35714631 399.23854065 -128.78034678 398.9870677 -127.203125 398.73828125 C-87.84128703 391.84548518 -53.67956006 372.52104405 -23.93359375 346.4921875 C-23.42296387 346.04617188 -22.91233398 345.60015625 -22.38623047 345.140625 C-10.37424713 334.57656637 0.05203069 322.90789045 9.74609375 310.20214844 C11.02793608 308.54201092 12.33776632 306.90919215 13.66015625 305.28125 C24.4067643 291.94738112 31.07832323 277.99919294 36.31567383 261.73486328 C37.02653851 259.61128507 37.81347263 257.53680214 38.6328125 255.453125 C40.22844083 251.25311378 41.22099457 247.01103168 42.12890625 242.6171875 C42.28939453 241.89789063 42.44988281 241.17859375 42.61523438 240.4375 C45.87575948 224.93363764 46.41546482 209.3488115 46.38208008 193.56030273 C46.37890639 190.42982533 46.4025349 187.30028443 46.42773438 184.16992188 C46.46496331 172.24131314 45.64384489 161.15202897 43.06640625 149.4921875 C42.76631313 148.0647222 42.46790182 146.63690234 42.17114258 145.20874023 C41.49105782 141.9646626 40.78923253 138.72696327 40.06640625 135.4921875 C41.30390625 135.1621875 42.54140625 134.8321875 43.81640625 134.4921875 C44.5125 134.3065625 45.20859375 134.1209375 45.92578125 133.9296875 C48.06640625 133.4921875 48.06640625 133.4921875 52.06640625 133.4921875 C53.38427585 136.40645706 54.694748 139.32399544 56.00390625 142.2421875 C56.37708984 143.0671875 56.75027344 143.8921875 57.13476562 144.7421875 C57.67133789 145.94101562 57.67133789 145.94101562 58.21875 147.1640625 C58.54866943 147.8972168 58.87858887 148.63037109 59.21850586 149.38574219 C60.03216052 151.40711057 60.59409937 153.36785613 61.06640625 155.4921875 C65.02461484 154.92672913 67.73231155 153.68316402 71.06640625 151.4921875 C70.47386276 146.24982353 68.74037891 142.04115403 66.56640625 137.3046875 C63.14345229 129.72332561 63.14345229 129.72332561 62.06640625 126.4921875 C62.72640625 126.4921875 63.38640625 126.4921875 64.06640625 126.4921875 C63.73640625 124.8421875 63.40640625 123.1921875 63.06640625 121.4921875 C59.93290893 120.44768839 59.07672369 120.55795105 56.06640625 121.4921875 C55.57011719 120.36683594 55.07382812 119.24148437 54.5625 118.08203125 C47.56336911 102.17174493 47.56336911 102.17174493 40.06640625 86.4921875 C43.53140625 85.5021875 43.53140625 85.5021875 47.06640625 84.4921875 C46.73640625 82.8421875 46.40640625 81.1921875 46.06640625 79.4921875 C43.70232418 78.73230398 42.37627358 78.4101638 39.94140625 79.0546875 C39.32265625 79.1990625 38.70390625 79.3434375 38.06640625 79.4921875 C35.8312213 77.25700255 35.22617733 75.61896386 34.12890625 72.6796875 C32.72430704 69.04456371 31.23811815 65.74975535 29.06640625 62.4921875 C27.74640625 62.8221875 26.42640625 63.1521875 25.06640625 63.4921875 C26.55405119 67.23551732 28.08128111 70.96076739 29.62890625 74.6796875 C30.06332031 75.72511719 30.49773437 76.77054687 30.9453125 77.84765625 C31.60960551 79.41464708 32.3052564 80.9698878 33.06640625 82.4921875 C32.17888672 82.78222656 32.17888672 82.78222656 31.2734375 83.078125 C27.15174175 84.43633469 23.07135385 85.81269335 19.06640625 87.4921875 C18.81761719 86.7909375 18.56882812 86.0896875 18.3125 85.3671875 C13.63243744 74.56930021 4.77341087 65.25145057 -2.93359375 56.4921875 C-3.69671875 55.61691406 -4.45984375 54.74164063 -5.24609375 53.83984375 C-14.98633739 42.82988978 -25.20615519 33.29207671 -36.93359375 24.4921875 C-37.88363281 23.7703125 -38.83367187 23.0484375 -39.8125 22.3046875 C-51.45375307 13.62881913 -63.80550803 6.61371062 -76.93359375 0.4921875 C-77.67383789 0.14623535 -78.41408203 -0.1997168 -79.17675781 -0.55615234 C-90.57254291 -5.80325458 -101.91499935 -9.40228335 -114.17211914 -12.06225586 C-115.93359375 -12.5078125 -115.93359375 -12.5078125 -117.93359375 -13.5078125 C-129.58525046 -15.6052469 -141.20008816 -15.82104613 -153.00561523 -15.76855469 C-155.86398586 -15.75783915 -158.72172646 -15.76851247 -161.58007812 -15.78125 C-177.06160251 -15.79477981 -191.92560269 -14.64122658 -206.99609375 -10.8828125 Z " fill="#FEFEFE" transform="translate(410.93359375,57.5078125)"/>
<path d="M0 0 C2.86048501 0.01074361 5.72034411 0.00002331 8.58081055 -0.01269531 C22.51923524 -0.0244185 36.3458512 0.47619696 49.79760742 4.51074219 C50.54123535 4.72617676 51.28486328 4.94161133 52.05102539 5.16357422 C59.78966362 7.46070023 67.31974804 10.22942888 74.79760742 13.26074219 C75.77528076 13.65084473 75.77528076 13.65084473 76.77270508 14.04882812 C110.34004805 27.56177181 140.56354724 51.90097155 162.79760742 80.26074219 C163.22106445 80.79666992 163.64452148 81.33259766 164.08081055 81.88476562 C177.79760742 99.26812897 177.79760742 99.26812897 177.79760742 103.26074219 C178.6406543 102.89980469 179.48370117 102.53886719 180.35229492 102.16699219 C181.99584961 101.47089844 181.99584961 101.47089844 183.67260742 100.76074219 C184.7631543 100.29667969 185.85370117 99.83261719 186.97729492 99.35449219 C189.79760742 98.26074219 189.79760742 98.26074219 191.79760742 98.26074219 C191.19948242 97.10574219 190.60135742 95.95074219 189.98510742 94.76074219 C184.79760742 84.34882048 184.79760742 84.34882048 184.79760742 78.26074219 C186.63354492 78.46386719 186.63354492 78.46386719 188.79760742 79.26074219 C190.21166992 81.37011719 190.21166992 81.37011719 191.42260742 84.01074219 C191.82737305 84.87183594 192.23213867 85.73292969 192.64916992 86.62011719 C193.42685055 88.40825359 194.17086642 90.21134424 194.88354492 92.02636719 C195.60234609 94.19438974 195.60234609 94.19438974 196.79760742 95.26074219 C199.13705478 94.97344163 201.47152172 94.64137439 203.79760742 94.26074219 C205.79760742 97.26074219 205.79760742 97.26074219 205.79760742 100.26074219 C202.33260742 101.25074219 202.33260742 101.25074219 198.79760742 102.26074219 C199.39508789 103.43830078 199.39508789 103.43830078 200.00463867 104.63964844 C200.53444336 105.69023437 201.06424805 106.74082031 201.61010742 107.82324219 C202.13217773 108.85578125 202.65424805 109.88832031 203.19213867 110.95214844 C204.84028911 114.34870177 206.32862882 117.78316019 207.79760742 121.26074219 C209.02026073 124.07609315 210.25308964 126.88697823 211.48510742 129.69824219 C211.80543945 130.42978516 212.12577148 131.16132813 212.45581055 131.91503906 C213.23616672 133.69704644 214.01685241 135.47890952 214.79760742 137.26074219 C216.77760742 136.93074219 218.75760742 136.60074219 220.79760742 136.26074219 C222.79760742 139.26074219 222.79760742 139.26074219 222.79760742 142.26074219 C222.13760742 142.26074219 221.47760742 142.26074219 220.79760742 142.26074219 C221.54616203 144.07383961 222.29654188 145.88618347 223.04760742 147.69824219 C223.4987793 148.79136719 223.94995117 149.88449219 224.41479492 151.01074219 C225.59497139 153.78449028 226.86191431 156.4851991 228.17260742 159.19824219 C229.31691543 161.79169435 229.79758477 163.2602211 229.92260742 166.13574219 C228.24600446 169.3026589 226.07436547 170.01557413 222.79760742 171.26074219 C221.80760742 171.26074219 220.81760742 171.26074219 219.79760742 171.26074219 C219.48307617 170.42671875 219.16854492 169.59269531 218.84448242 168.73339844 C216.34184796 162.15267589 213.75356692 155.65155965 210.79760742 149.26074219 C206.76621028 149.81407121 202.78296178 150.44164518 198.79760742 151.26074219 C199.01694946 152.24300781 199.01694946 152.24300781 199.24072266 153.24511719 C199.90933368 156.24949073 200.57225759 159.25509254 201.23510742 162.26074219 C201.58025391 163.80568359 201.58025391 163.80568359 201.93237305 165.38183594 C202.26591797 166.89970703 202.26591797 166.89970703 202.60620117 168.44824219 C202.81043701 169.36992187 203.01467285 170.29160156 203.22509766 171.24121094 C204.60421663 178.51496081 204.95694526 185.5241643 204.96557617 192.90917969 C204.96890457 193.92058014 204.97223297 194.93198059 204.97566223 195.97402954 C204.98070604 198.1104487 204.98307135 200.24687567 204.98291016 202.38330078 C204.98507739 205.59128479 205.00320725 208.7989135 205.0222168 212.00683594 C205.0646393 227.32758897 204.38531818 242.4782949 201.17260742 257.51074219 C201.01147461 258.27177246 200.8503418 259.03280273 200.68432617 259.81689453 C195.35384262 283.2417234 184.93100935 305.67116631 169.79760742 324.26074219 C168.69932617 325.63166016 168.69932617 325.63166016 167.57885742 327.03027344 C165.34374174 329.79582418 163.07836229 332.53270801 160.79760742 335.26074219 C160.33596191 335.81407227 159.87431641 336.36740234 159.39868164 336.9375 C150.52791546 347.53793389 141.41135605 357.40476426 130.56713867 366.04980469 C128.75241742 367.49851023 126.95705516 368.97188206 125.18432617 370.47167969 C92.18310765 398.33937533 47.86281789 416.9439061 4.47729492 417.53417969 C3.62406143 417.54675308 2.77082794 417.55932648 1.89173889 417.57228088 C-16.77577459 417.79427477 -34.12806405 417.40410034 -52.20239258 412.26074219 C-54.35771797 411.69729756 -56.51401206 411.13754847 -58.67114258 410.58105469 C-101.12048433 399.41116444 -138.85099953 376.97951383 -166.20239258 342.26074219 C-166.8158252 341.49455566 -166.8158252 341.49455566 -167.44165039 340.71289062 C-173.68340666 332.91429908 -179.15375143 324.89952814 -184.20239258 316.26074219 C-184.87141602 315.13796875 -185.54043945 314.01519531 -186.22973633 312.85839844 C-193.90747413 299.84522119 -199.77024083 286.47261161 -204.55444336 272.15039062 C-205.10632758 270.5409016 -205.70968243 268.94921233 -206.32348633 267.36230469 C-219.9339534 231.24425588 -218.40413348 181.02021553 -204.20239258 145.26074219 C-203.74165696 143.96954896 -203.28615219 142.67648028 -202.83520508 141.38183594 C-196.31712334 122.90165626 -186.90638779 104.97822241 -175.20239258 89.26074219 C-174.44055664 88.23207031 -173.6787207 87.20339844 -172.89379883 86.14355469 C-168.06247567 79.70179048 -162.9758367 73.62851551 -157.48364258 67.72949219 C-155.5900865 65.68030136 -153.79641398 63.59333939 -152.01489258 61.44824219 C-137.36099369 44.71068868 -119.80262276 30.70510639 -99.20239258 22.26074219 C-98.29102539 21.87789062 -97.3796582 21.49503906 -96.44067383 21.10058594 C-94.8875672 20.46650769 -93.32767754 19.84875178 -91.76098633 19.24902344 C-89.7829021 18.48496953 -87.81933989 17.68325703 -85.86254883 16.86621094 C-73.12837174 11.55633148 -60.0811854 7.8890485 -46.70239258 4.57324219 C-45.90945801 4.37077881 -45.11652344 4.16831543 -44.29956055 3.9597168 C-29.67590364 0.45079972 -14.96949956 -0.06670786 0 0 Z M-146.88989258 80.19824219 C-148.00435142 81.54395125 -149.10730846 82.89922019 -150.20239258 84.26074219 C-151.00676758 85.2159375 -151.81114258 86.17113281 -152.63989258 87.15527344 C-173.23044572 112.02636676 -187.4739115 142.881727 -192.77612305 174.70800781 C-193.07657876 176.50730042 -193.4007684 178.30270894 -193.74194336 180.09472656 C-195.30654095 188.90756199 -195.50980082 197.52491626 -195.46313477 206.4453125 C-195.45237715 208.88924786 -195.46311155 211.33245344 -195.47583008 213.77636719 C-195.4839219 222.17035187 -195.09555255 230.0457358 -193.20239258 238.26074219 C-192.88326924 239.9190758 -192.56686684 241.5779353 -192.25317383 243.23730469 C-189.48587103 256.88789474 -186.21481859 270.65715397 -180.20239258 283.26074219 C-179.54703697 284.71830797 -178.89355718 286.17671791 -178.24145508 287.63574219 C-156.11229809 336.49664278 -115.7732828 371.51785461 -66.05395508 390.51074219 C-59.21339074 393.03024774 -52.35680616 394.87985704 -45.20239258 396.26074219 C-44.29875977 396.44121094 -43.39512695 396.62167969 -42.46411133 396.80761719 C-4.905588 404.09288777 37.82621553 402.13537887 72.79760742 385.26074219 C73.39702148 384.97473145 73.99643555 384.6887207 74.61401367 384.39404297 C79.38900159 382.10503907 84.10404351 379.71189035 88.79760742 377.26074219 C89.96420898 376.65488281 91.13081055 376.04902344 92.33276367 375.42480469 C106.99073479 367.44790651 119.82684672 356.8151286 131.79760742 345.26074219 C132.64581055 344.46410156 133.49401367 343.66746094 134.36791992 342.84667969 C150.38913212 327.42814632 162.53522631 308.3718085 171.79760742 288.26074219 C172.11165527 287.58454834 172.42570312 286.90835449 172.74926758 286.21166992 C193.72061494 240.15643915 194.49613931 188.32768219 177.58276367 140.85058594 C176.41565389 137.93084666 175.15078377 135.09902016 173.79760742 132.26074219 C173.36859131 131.3594458 173.36859131 131.3594458 172.9309082 130.43994141 C170.64201211 125.66636496 168.24416431 120.95513898 165.79760742 116.26074219 C165.20334961 115.10574219 164.6090918 113.95074219 163.99682617 112.76074219 C146.62709244 80.62487508 117.92316925 55.20516827 85.89868164 38.38574219 C83.70394407 37.21059105 81.55309346 35.97091849 79.39526367 34.72949219 C55.25699662 21.3017027 24.39565974 16.26435028 -2.82739258 16.57324219 C-4.38580872 16.58096146 -4.38580872 16.58096146 -5.97570801 16.58883667 C-59.68640329 16.94735376 -110.89889019 39.97808124 -146.88989258 80.19824219 Z " fill="#565656" transform="translate(252.202392578125,41.7392578125)"/>
<path d="M0 0 C1.15727097 -0.00101212 1.15727097 -0.00101212 2.33792114 -0.00204468 C14.80764025 0.01521188 26.82270596 0.7036903 39.0625 3.25 C40.22700684 3.47550537 40.22700684 3.47550537 41.41503906 3.70556641 C71.79218572 9.72226576 100.14292744 23.76396006 124.0625 43.25 C124.67706055 43.75031738 125.29162109 44.25063477 125.92480469 44.76611328 C145.09317955 60.51698867 162.04212428 79.38398759 174.0625 101.25 C174.0625 101.91 174.0625 102.57 174.0625 103.25 C176.10617572 102.65266451 178.14736043 102.04680343 180.1875 101.4375 C181.32445312 101.10105469 182.46140625 100.76460938 183.6328125 100.41796875 C187.09567068 99.32482472 187.09567068 99.32482472 190.3125 97.625 C193.19889615 96.18180192 194.88799455 95.96989658 198.0625 96.25 C200.2611139 100.57141353 202.34382947 104.87208993 204.23510742 109.33862305 C205.09664544 111.3288801 206.00352779 113.29316912 206.921875 115.2578125 C207.38787109 116.27294922 207.38787109 116.27294922 207.86328125 117.30859375 C208.50179603 118.69861152 209.15044195 120.08401547 209.80859375 121.46484375 C211.16329248 124.4543266 212.07485379 126.79846915 211.984375 130.10546875 C210.55849752 133.42244644 208.56474303 133.98341516 205.3984375 135.41796875 C202.29780829 136.52237347 199.20052767 137.10881147 195.9453125 137.5625 C193.9453686 138.11041719 193.9453686 138.11041719 192.7421875 139.875 C190.90243304 146.30356732 194.14892659 154.77071031 195.51367188 161.25195312 C198.07703031 173.73736058 199.50246327 185.99385019 199.5 198.75 C199.50139984 199.45399933 199.50279968 200.15799866 199.50424194 200.8833313 C199.46607021 224.56673357 195.73888768 249.50442225 186.0625 271.25 C185.381875 272.85875 185.381875 272.85875 184.6875 274.5 C184.1462189 275.75016701 183.60451393 277.00015054 183.0625 278.25 C182.59263672 279.36568359 182.59263672 279.36568359 182.11328125 280.50390625 C175.7893479 295.03785834 167.80435577 308.75158211 158.0625 321.25 C157.65483398 321.77335937 157.24716797 322.29671875 156.82714844 322.8359375 C144.24319376 338.75647181 129.58249037 352.50851924 113.0625 364.25 C112.17820312 364.88421875 111.29390625 365.5184375 110.3828125 366.171875 C97.54324538 375.03620248 82.54850671 382.34116823 67.75732422 387.31762695 C66.06070258 387.90463529 64.37419271 388.52265694 62.70507812 389.18383789 C55.46061336 392.02855653 48.11366463 393.65372761 40.48242188 395.06030273 C38.4316103 395.43858639 36.38374971 395.83044218 34.3359375 396.22460938 C-7.71735482 404.23832358 -52.15083725 398.21154878 -90.07910156 378.2175293 C-92.02537926 377.20424783 -93.98871672 376.23142402 -95.95703125 375.26171875 C-113.39478447 366.56288069 -127.94122258 354.67072122 -141.9375 341.25 C-142.67444092 340.55390625 -142.67444092 340.55390625 -143.42626953 339.84375 C-150.45788915 333.18793795 -156.35451088 326.14837599 -161.9375 318.25 C-162.66582031 317.25484375 -163.39414063 316.2596875 -164.14453125 315.234375 C-175.99135135 298.71936834 -184.6276748 280.89385014 -190.84765625 261.578125 C-191.67743365 259.04418112 -192.56195793 256.59265815 -193.5625 254.125 C-196.69676452 245.91536395 -198.18202411 237.23073219 -198.7265625 228.4921875 C-198.86816933 226.08135699 -198.86816933 226.08135699 -199.9375 223.25 C-203.13232103 199.25587981 -201.73873805 172.52060372 -194.9375 149.25 C-194.57785156 148.00863281 -194.21820313 146.76726562 -193.84765625 145.48828125 C-192.62474349 141.38139507 -191.30009 137.31242854 -189.9375 133.25 C-189.72254883 132.60160156 -189.50759766 131.95320312 -189.28613281 131.28515625 C-182.24572941 110.36389771 -170.84000742 91.32758118 -156.9375 74.25 C-156.26332031 73.39148438 -155.58914062 72.53296875 -154.89453125 71.6484375 C-146.33599919 60.89346801 -136.7387262 51.71981399 -125.9375 43.25 C-124.95265625 42.44820312 -123.9678125 41.64640625 -122.953125 40.8203125 C-115.06721616 34.47562767 -106.68459002 29.3052464 -97.87207031 24.34472656 C-96.61524675 23.6335205 -95.36416409 22.91203681 -94.12011719 22.17871094 C-77.78846888 12.579887 -57.72666057 6.59100048 -39.1875 3 C-37.92933472 2.75515869 -37.92933472 2.75515869 -36.64575195 2.50537109 C-24.50347051 0.28305314 -12.3093988 0.00974564 0 0 Z M-144.625 71.1875 C-145.73945885 72.53320906 -146.84241588 73.888478 -147.9375 75.25 C-148.741875 76.20519531 -149.54625 77.16039063 -150.375 78.14453125 C-170.96555314 103.01562457 -185.20901893 133.87098481 -190.51123047 165.69726562 C-190.81168618 167.49655824 -191.13587582 169.29196675 -191.47705078 171.08398438 C-193.04164838 179.8968198 -193.24490824 188.51417408 -193.19824219 197.43457031 C-193.18748457 199.87850567 -193.19821897 202.32171125 -193.2109375 204.765625 C-193.21902932 213.15960968 -192.83065998 221.03499362 -190.9375 229.25 C-190.61837667 230.90833361 -190.30197427 232.56719312 -189.98828125 234.2265625 C-187.22097845 247.87715255 -183.94992601 261.64641179 -177.9375 274.25 C-177.28214439 275.70756578 -176.62866461 277.16597573 -175.9765625 278.625 C-153.84740551 327.48590059 -113.50839023 362.50711243 -63.7890625 381.5 C-56.94849816 384.01950555 -50.09191358 385.86911485 -42.9375 387.25 C-42.03386719 387.43046875 -41.13023437 387.6109375 -40.19921875 387.796875 C-2.64069543 395.08214558 40.0911081 393.12463668 75.0625 376.25 C75.66191406 375.96398926 76.26132812 375.67797852 76.87890625 375.38330078 C81.65389417 373.09429688 86.36893609 370.70114816 91.0625 368.25 C92.22910156 367.64414062 93.39570313 367.03828125 94.59765625 366.4140625 C109.25562737 358.43716433 122.0917393 347.80438641 134.0625 336.25 C134.91070312 335.45335937 135.75890625 334.65671875 136.6328125 333.8359375 C152.6540247 318.41740413 164.80011889 299.36106632 174.0625 279.25 C174.37654785 278.57380615 174.6905957 277.8976123 175.01416016 277.20092773 C195.98550751 231.14569697 196.76103189 179.31694 179.84765625 131.83984375 C178.68054647 128.92010447 177.41567635 126.08827797 176.0625 123.25 C175.63348389 122.34870361 175.63348389 122.34870361 175.19580078 121.42919922 C172.90690469 116.65562277 170.50905689 111.94439679 168.0625 107.25 C167.46824219 106.095 166.87398438 104.94 166.26171875 103.75 C148.89198502 71.61413289 120.18806183 46.19442609 88.16357422 29.375 C85.96883665 28.19984886 83.81798604 26.9601763 81.66015625 25.71875 C57.5218892 12.29096051 26.66055232 7.25360809 -0.5625 7.5625 C-2.12091614 7.57021927 -2.12091614 7.57021927 -3.71081543 7.57809448 C-57.42151072 7.93661157 -108.63399761 30.96733906 -144.625 71.1875 Z " fill="#787878" transform="translate(249.9375,50.75)"/>
<path d="M0 0 C2.52153944 1.17531817 4.07368196 2.62765678 6.04190063 4.59768677 C6.82240784 5.37196518 7.60291504 6.14624359 8.40707397 6.94398499 C9.23950623 7.78562698 10.07193848 8.62726898 10.92959595 9.49441528 C11.78958191 10.35390274 12.64956787 11.2133902 13.53561401 12.09892273 C15.35137205 13.91702146 17.1634372 15.7388147 18.97207642 17.56399536 C21.75187813 20.36742904 24.54479608 23.15727047 27.3397522 25.94558716 C29.09966136 27.71107148 30.85880267 29.47732165 32.61709595 31.24441528 C33.87788971 32.50384193 33.87788971 32.50384193 35.16415405 33.78871155 C35.93205261 34.56614212 36.69995117 35.34357269 37.49111938 36.14456177 C38.17188538 36.82993515 38.85265137 37.51530853 39.55404663 38.22145081 C41.00772095 39.93582153 41.00772095 39.93582153 41.00772095 41.93582153 C38.36772095 41.93582153 35.72772095 41.93582153 33.00772095 41.93582153 C33.00772095 52.49582153 33.00772095 63.05582153 33.00772095 73.93582153 C36.30772095 72.61582153 39.60772095 71.29582153 43.00772095 69.93582153 C44.49272095 70.43082153 44.49272095 70.43082153 46.00772095 70.93582153 C45.16467407 71.22714966 44.3216272 71.51847778 43.45303345 71.81863403 C42.35733032 72.22855591 41.2616272 72.63847778 40.13272095 73.06082153 C38.49690063 73.65250122 38.49690063 73.65250122 36.82803345 74.25613403 C33.27508662 75.95616753 33.27508662 75.95616753 32.00772095 81.93582153 C10.22772095 81.93582153 -11.55227905 81.93582153 -33.99227905 81.93582153 C-33.99227905 68.73582153 -33.99227905 55.53582153 -33.99227905 41.93582153 C-36.63227905 41.93582153 -39.27227905 41.93582153 -41.99227905 41.93582153 C-40.56383701 38.6919324 -38.82038736 36.49760006 -36.34042358 33.97756958 C-35.21883347 32.83199837 -35.21883347 32.83199837 -34.07458496 31.6632843 C-33.26625214 30.84958878 -32.45791931 30.03589325 -31.62509155 29.19754028 C-30.79395844 28.35737869 -29.96282532 27.5172171 -29.10650635 26.65159607 C-27.34900682 24.87959824 -25.58868966 23.1103912 -23.82577515 21.34378052 C-21.1223308 18.6283956 -18.43809431 15.8949249 -15.7539978 13.16043091 C-14.04551383 11.44248816 -12.33591578 9.72565248 -10.62509155 8.01004028 C-9.41866501 6.77431526 -9.41866501 6.77431526 -8.18786621 5.5136261 C-7.43383514 4.76567276 -6.67980408 4.01771942 -5.90292358 3.24710083 C-5.24277252 2.58187912 -4.58262146 1.91665741 -3.90246582 1.23127747 C-1.99227905 -0.06417847 -1.99227905 -0.06417847 0 0 Z " fill="#F9C043" transform="translate(172.99227905273438,140.06417846679688)"/>
<path d="M0 0 C0.99 0 1.98 0 3 0 C2.67 2.31 2.34 4.62 2 7 C3.65 7 5.3 7 7 7 C7 8.32 7 9.64 7 11 C5.35 11 3.7 11 2 11 C2.33 17.93 2.66 24.86 3 32 C8.61 32.33 14.22 32.66 20 33 C20 25.74 20 18.48 20 11 C18.35 11 16.7 11 15 11 C15 10.01 15 9.02 15 8 C27.54 8 40.08 8 53 8 C56 19 56 19 56 23 C55.01 23 54.02 23 53 23 C52.80664062 22.37351563 52.61328125 21.74703125 52.4140625 21.1015625 C52.15367187 20.28429687 51.89328125 19.46703125 51.625 18.625 C51.36976563 17.81289062 51.11453125 17.00078125 50.8515625 16.1640625 C50.10145717 13.83540815 50.10145717 13.83540815 48 12 C43.65604929 11.72082579 39.35649033 11.91457862 35 12 C34.67 18.93 34.34 25.86 34 33 C37.3 33 40.6 33 44 33 C44.33 30.03 44.66 27.06 45 24 C45.99 24 46.98 24 48 24 C48 30.93 48 37.86 48 45 C47.01 44.67 46.02 44.34 45 44 C44.505 40.04 44.505 40.04 44 36 C40.7 35.67 37.4 35.34 34 35 C34.33 42.26 34.66 49.52 35 57 C41.53757465 57.4460995 41.53757465 57.4460995 48 57 C50.42523824 54.55026441 51.90548836 52.16357783 53.625 49.1875 C54.07875 48.465625 54.5325 47.74375 55 47 C55.66 47 56.32 47 57 47 C56.34 50.63 55.68 54.26 55 58 C56.65 58 58.3 58 60 58 C59.67 42.82 59.34 27.64 59 12 C57.68 11.67 56.36 11.34 55 11 C55 10.01 55 9.02 55 8 C59.62 8 64.24 8 69 8 C69 8.99 69 9.98 69 11 C67.35 11 65.7 11 64 11 C64 26.51 64 42.02 64 58 C68.62 57.67 73.24 57.34 78 57 C81.80429879 52.50130437 81.80429879 52.50130437 83.625 49.1875 C84.07875 48.465625 84.5325 47.74375 85 47 C85.66 47 86.32 47 87 47 C86.52372025 48.95903745 86.04388577 50.91721097 85.5625 52.875 C85.29566406 53.96554687 85.02882813 55.05609375 84.75390625 56.1796875 C84 59 84 59 83 61 C60.33333333 61 37.66666667 61 15 61 C15 60.01 15 59.02 15 58 C16.98 57.505 16.98 57.505 19 57 C19.33 49.74 19.66 42.48 20 35 C14.06 35 8.12 35 2 35 C2.144375 37.701875 2.28875 40.40375 2.4375 43.1875 C2.48060303 44.02949951 2.52370605 44.87149902 2.56811523 45.73901367 C2.78396314 49.57818584 3.10458383 53.24527168 4 57 C4.99 57.33 5.98 57.66 7 58 C7 58.99 7 59.98 7 61 C2.71 61 -1.58 61 -6 61 C-6 59.68 -6 58.36 -6 57 C-4.35 57 -2.7 57 -1 57 C-1.33 41.82 -1.66 26.64 -2 11 C-3.32 10.67 -4.64 10.34 -6 10 C-6 9.01 -6 8.02 -6 7 C-4.02 7 -2.04 7 0 7 C0 4.69 0 2.38 0 0 Z " fill="#515151" transform="translate(96,225)"/>
<path d="M0 0 C1.34550786 0.64174045 2.6819 1.30369935 4 2 C6.30797001 1.66059264 7.91510461 1.04244769 10 0 C16.50063902 -0.80761503 20.7119986 0.14416565 26 4 C26.95231986 6.85695958 27.19511098 8.83477041 27.25 11.8125 C27.27578125 12.64394531 27.3015625 13.47539062 27.328125 14.33203125 C26.6076547 20.19014094 23.60841269 23.7642177 19.25 27.5 C18.36570313 28.26054687 17.48140625 29.02109375 16.5703125 29.8046875 C15.72210938 30.52914062 14.87390625 31.25359375 14 32 C13.31679687 32.64195312 12.63359375 33.28390625 11.9296875 33.9453125 C7.55260439 38.01922102 7.55260439 38.01922102 5.203125 37.9375 C1.98535352 36.56823554 -0.64282346 34.51729258 -3.375 32.375 C-4.2417334 31.70102173 -4.2417334 31.70102173 -5.12597656 31.01342773 C-10.76217393 26.54226777 -16.37232885 22.06109523 -17.30859375 14.51171875 C-17.70023371 5.93124336 -17.70023371 5.93124336 -14.6875 2.3125 C-10.45325894 -1.19413878 -5.19450646 -0.8160554 0 0 Z " fill="#FEFDFB" transform="translate(167,180)"/>
<path d="M0 0 C6.6 0 13.2 0 20 0 C21.92322725 4.08814349 23.84462444 8.17705589 25.76171875 12.26806641 C26.41239816 13.65526091 27.06406545 15.04199253 27.71679688 16.42822266 C28.66285587 18.43787252 29.60517262 20.44924312 30.546875 22.4609375 C30.83246277 23.06553802 31.11805054 23.67013855 31.41229248 24.2930603 C33.82858605 29.46990105 35.86677159 34.66692897 38 40 C38.33 28.12 38.66 16.24 39 4 C37.68 4 36.36 4 35 4 C35 2.68 35 1.36 35 0 C38.63 0 42.26 0 46 0 C46 1.32 46 2.64 46 4 C44.68 4 43.36 4 42 4 C42 20.5 42 37 42 54 C39 53 39 53 37.7890625 51.171875 C35.06212307 45.49837686 32.73627994 39.76670801 30.53515625 33.87109375 C27.40437815 25.76520076 23.60059725 17.89981785 20 10 C20 23.2 20 36.4 20 50 C21.32 50.33 22.64 50.66 24 51 C24 51.99 24 52.98 24 54 C16.08 54 8.16 54 0 54 C0 53.01 0 52.02 0 51 C2.475 50.505 2.475 50.505 5 50 C5 34.82 5 19.64 5 4 C3.35 3.67 1.7 3.34 0 3 C0 2.01 0 1.02 0 0 Z " fill="#5F5F5F" transform="translate(210,233)"/>
<path d="M0 0 C4.1004179 2.44360698 7.70408193 5.12573557 9.1015625 9.8671875 C10.44638126 16.23189006 9.966622 21.59271504 6.76171875 27.2890625 C4.16519281 30.99478399 0.66542323 33.27704658 -3.4453125 35.01171875 C-9.51766444 35.91389675 -14.9006309 36.01010677 -20.0078125 32.32421875 C-23.7963289 29.17119543 -26.15668326 25.89021406 -26.9140625 20.9609375 C-26.98346563 13.71698567 -26.61884584 8.38321893 -21.4453125 3.01171875 C-15.34988857 -1.96413752 -7.39940262 -2.99049339 0 0 Z " fill="#595959" transform="translate(330.4453125,290.98828125)"/>
<path d="M0 0 C5.47338604 1.89080609 9.43920734 5.25003198 12.3125 10.3125 C13.98194083 16.83849597 13.30485146 21.99116731 10.296875 27.9453125 C8.03764992 31.52468718 6.06613059 33.61804712 2 35 C-4.4997329 35.79472717 -10.53635337 36.4041063 -16.3515625 33.08984375 C-20.146669 30.09518006 -22.06625184 27.72710005 -23 23 C-23.11598239 21.1901352 -23.17492348 19.37603366 -23.1875 17.5625 C-23.20167969 16.63566406 -23.21585938 15.70882813 -23.23046875 14.75390625 C-22.90452247 10.85912446 -22.04087076 8.10960751 -19.34375 5.234375 C-18.7353125 4.74453125 -18.126875 4.2546875 -17.5 3.75 C-16.58734375 2.99976563 -16.58734375 2.99976563 -15.65625 2.234375 C-11.04960272 -1.19888099 -5.51201749 -0.3973276 0 0 Z " fill="#575757" transform="translate(163,290)"/>
<path d="M0 0 C1.15113281 -0.03738281 2.30226562 -0.07476562 3.48828125 -0.11328125 C6.6875 0.3125 6.6875 0.3125 9.05859375 2.06640625 C11.54802193 5.49907101 11.4088555 8.13283251 11.6875 12.3125 C12.6775 12.3125 13.6675 12.3125 14.6875 12.3125 C14.44 11.5390625 14.44 11.5390625 14.1875 10.75 C13.53701 7.57886124 13.6254266 4.54031666 13.6875 1.3125 C15.3375 1.3125 16.9875 1.3125 18.6875 1.3125 C18.6875 16.4925 18.6875 31.6725 18.6875 47.3125 C17.0375 47.3125 15.3875 47.3125 13.6875 47.3125 C13.82857747 45.85369891 13.97552415 44.39546449 14.125 42.9375 C14.20621094 42.12539063 14.28742188 41.31328125 14.37109375 40.4765625 C14.6875 38.3125 14.6875 38.3125 15.6875 36.3125 C12.76957073 38.93863634 10.83881721 42.05082552 8.6875 45.3125 C6.6875 47.3125 6.6875 47.3125 3.68359375 47.54296875 C2.50925781 47.52878906 1.33492187 47.51460938 0.125 47.5 C-1.64037109 47.49033203 -1.64037109 47.49033203 -3.44140625 47.48046875 C-6.3125 47.3125 -6.3125 47.3125 -7.3125 46.3125 C-7.39950342 44.67777118 -7.41951063 43.03935945 -7.41015625 41.40234375 C-7.40693359 40.41298828 -7.40371094 39.42363281 -7.40039062 38.40429688 C-7.39201172 37.36337891 -7.38363281 36.32246094 -7.375 35.25 C-7.37048828 34.20521484 -7.36597656 33.16042969 -7.36132812 32.08398438 C-7.34949913 29.4934334 -7.33301689 26.90299441 -7.3125 24.3125 C-5.66675434 24.28561849 -4.02088587 24.26615877 -2.375 24.25 C-1.45847656 24.23839844 -0.54195312 24.22679687 0.40234375 24.21484375 C2.6875 24.3125 2.6875 24.3125 3.6875 25.3125 C3.96703219 27.3712768 4.13484351 29.42978432 4.30859375 31.5 C4.43363281 32.098125 4.55867187 32.69625 4.6875 33.3125 C5.3475 33.6425 6.0075 33.9725 6.6875 34.3125 C6.6875 27.3825 6.6875 20.4525 6.6875 13.3125 C5.6975 13.3125 4.7075 13.3125 3.6875 13.3125 C3.708125 14.42625 3.72875 15.54 3.75 16.6875 C3.6875 20.3125 3.6875 20.3125 2.6875 22.3125 C-0.6125 22.3125 -3.9125 22.3125 -7.3125 22.3125 C-7.33933201 18.83328265 -7.3592567 15.35426961 -7.375 11.875 C-7.38337891 10.88177734 -7.39175781 9.88855469 -7.40039062 8.86523438 C-7.40361328 7.92099609 -7.40683594 6.97675781 -7.41015625 6.00390625 C-7.41539307 5.12935791 -7.42062988 4.25480957 -7.42602539 3.35375977 C-7.18181718 -1.03726144 -3.66296672 0.07741531 0 0 Z " fill="#F9F9F9" transform="translate(137.3125,235.6875)"/>
<path d="M0 0 C2.1986139 4.32141353 4.28132947 8.62208993 6.17260742 13.08862305 C7.03414544 15.0788801 7.94102779 17.04316912 8.859375 19.0078125 C9.17003906 19.68457031 9.48070312 20.36132812 9.80078125 21.05859375 C10.43929603 22.44861152 11.08794195 23.83401547 11.74609375 25.21484375 C13.1036402 28.21061081 14.01352977 30.54921275 13.9140625 33.86328125 C12.60840227 36.91540152 10.4006686 37.72025201 7.46484375 39.015625 C6.65144531 39.34046875 5.83804687 39.6653125 5 40 C4.05253906 40.38671875 3.10507812 40.7734375 2.12890625 41.171875 C-5.55052947 44.14982351 -5.55052947 44.14982351 -9 43 C-10.10546875 40.21875 -10.10546875 40.21875 -11.1875 36.5 C-13.30679382 29.53976606 -16.13706843 23.12945528 -19.40893555 16.63671875 C-21.16219367 13.09400077 -22 11.02978842 -22 7 C-20.94039063 6.57847656 -19.88078125 6.15695313 -18.7890625 5.72265625 C-17.40102351 5.16931638 -16.01300367 4.61592847 -14.625 4.0625 C-13.92632812 3.78470703 -13.22765625 3.50691406 -12.5078125 3.22070312 C-4.16216631 -0.10953069 -4.16216631 -0.10953069 0 0 Z " fill="#FAFAFA" transform="translate(448,147)"/>
<path d="M0 0 C3.96 0 7.92 0 12 0 C12 0.99 12 1.98 12 3 C11.01 3.33 10.02 3.66 9 4 C8.76646808 10.30536186 9.62296042 15.85914782 11 22 C12.37703958 28.14085218 13.23353192 33.69463814 13 40 C13.66 40 14.32 40 15 40 C14.97035156 39.02546875 14.94070313 38.0509375 14.91015625 37.046875 C14.91125572 32.67978877 15.63424594 28.53153092 16.4375 24.25 C16.57220703 23.49589844 16.70691406 22.74179688 16.84570312 21.96484375 C17.40490558 18.89332196 18.01148277 15.96555169 19 13 C19.06740865 11.43881572 19.08514456 9.8749748 19.0625 8.3125 C19.05347656 7.50425781 19.04445313 6.69601563 19.03515625 5.86328125 C19.02355469 5.24839844 19.01195312 4.63351563 19 4 C18.01 3.67 17.02 3.34 16 3 C16 2.01 16 1.02 16 0 C19.63 0 23.26 0 27 0 C27 0.99 27 1.98 27 3 C26.01 3 25.02 3 24 3 C25.05373144 14.51666484 26.52262873 25.70014378 29 37 C29.81339123 32.62516521 30.62555593 28.25010359 31.4375 23.875 C31.66759766 22.6375 31.89769531 21.4 32.13476562 20.125 C32.35712891 18.92617187 32.57949219 17.72734375 32.80859375 16.4921875 C33.01282959 15.39245605 33.21706543 14.29272461 33.42749023 13.15966797 C33.97995256 10.11064134 34.49842898 7.05777032 35 4 C33.68 4 32.36 4 31 4 C31 2.68 31 1.36 31 0 C38.59 0 46.18 0 54 0 C54 0.99 54 1.98 54 3 C52.35 3 50.7 3 49 3 C49 18.51 49 34.02 49 50 C50.65 50 52.3 50 54 50 C54 50.99 54 51.98 54 53 C49.38 53 44.76 53 40 53 C40 52.34 40 51.68 40 51 C41.98 50.505 41.98 50.505 44 50 C44.33 34.49 44.66 18.98 45 3 C43.02 3.33 41.04 3.66 39 4 C37.50850752 11.18242842 36.2395223 18.38502583 35.0625 25.625 C33.50316002 35.1102507 31.83178472 44.56353325 30 54 C29.01 54 28.02 54 27 54 C25.27055648 43.93463872 23.65298606 33.88659497 22.4296875 23.74609375 C22.2911306 21.09469934 22.2911306 21.09469934 21 20 C20.81824219 21.11375 20.63648438 22.2275 20.44921875 23.375 C18.76732544 33.61074773 16.95684367 43.81331028 15 54 C14.01 54 13.02 54 12 54 C11.81824219 52.82566406 11.63648438 51.65132813 11.44921875 50.44140625 C9.3701582 37.08679555 7.26759853 23.73258046 4.5 10.5 C4.2834375 9.4584375 4.066875 8.416875 3.84375 7.34375 C3.42609375 6.18359375 3.42609375 6.18359375 3 5 C2.01 4.67 1.02 4.34 0 4 C0 2.68 0 1.36 0 0 Z " fill="#6B6B6B" transform="translate(294,233)"/>
<path d="M0 0 C2.97 0 5.94 0 9 0 C9.30292969 0.82242187 9.60585937 1.64484375 9.91796875 2.4921875 C13.61471859 13.99552009 13.61471859 13.99552009 20 24 C20.24234375 23.443125 20.4846875 22.88625 20.734375 22.3125 C22.72302971 17.78448619 24.81107543 13.3382784 27.05078125 8.9296875 C28.49077409 6.00229464 29.74542183 3.01098762 31 0 C33.97 0 36.94 0 40 0 C40 11.55 40 23.1 40 35 C37.69 35 35.38 35 33 35 C32.67 27.41 32.34 19.82 32 12 C29.23748897 18.06217698 26.48617849 24.12763647 23.796875 30.22265625 C23.22644101 31.49494776 22.62355763 32.75288473 22 34 C20.35 34 18.7 34 17 34 C12.13403993 24.44117726 12.13403993 24.44117726 10.3125 20 C9.19696122 16.95402832 9.19696122 16.95402832 7 15 C6.67 21.27 6.34 27.54 6 34 C4.02 34 2.04 34 0 34 C0 22.78 0 11.56 0 0 Z " fill="#5F5E5E" transform="translate(97,290)"/>
<path d="M0 0 C12.54 0 25.08 0 38 0 C41 11 41 11 41 15 C40.01 15 39.02 15 38 15 C37.80664062 14.37351563 37.61328125 13.74703125 37.4140625 13.1015625 C37.02347656 11.87566406 37.02347656 11.87566406 36.625 10.625 C36.36976563 9.81289062 36.11453125 9.00078125 35.8515625 8.1640625 C35.10145717 5.83540815 35.10145717 5.83540815 33 4 C28.65604929 3.72082579 24.35649033 3.91457862 20 4 C19.67 10.93 19.34 17.86 19 25 C22.3 25 25.6 25 29 25 C29.33 22.03 29.66 19.06 30 16 C30.99 16 31.98 16 33 16 C33 22.93 33 29.86 33 37 C32.01 36.67 31.02 36.34 30 36 C29.67 33.36 29.34 30.72 29 28 C25.7 27.67 22.4 27.34 19 27 C19 33.93 19 40.86 19 48 C18.67 48 18.34 48 18 48 C17.67 42.06 17.34 36.12 17 30 C16.90912109 32.03994141 16.90912109 32.03994141 16.81640625 34.12109375 C16.73201829 35.89324097 16.64736942 37.66537577 16.5625 39.4375 C16.52318359 40.33533203 16.48386719 41.23316406 16.44335938 42.15820312 C16.40146484 43.01220703 16.35957031 43.86621094 16.31640625 44.74609375 C16.27974854 45.53685303 16.24309082 46.3276123 16.20532227 47.14233398 C16 49 16 49 15 50 C12.0625 50.1875 12.0625 50.1875 9 50 C6.43863779 47.43863779 6.70333143 46.33438669 6.5859375 42.7734375 C6.54726562 41.7421875 6.50859375 40.7109375 6.46875 39.6484375 C6.4378125 38.56820312 6.406875 37.48796875 6.375 36.375 C6.33632812 35.28703125 6.29765625 34.1990625 6.2578125 33.078125 C6.16333753 30.38558835 6.07777569 27.69306243 6 25 C5.67 25 5.34 25 5 25 C5 17.74 5 10.48 5 3 C3.35 3 1.7 3 0 3 C0 2.01 0 1.02 0 0 Z " fill="#595959" transform="translate(111,233)"/>
<path d="M0 0 C2.97 0 5.94 0 9 0 C19 21.26666667 19 21.26666667 19 25 C19.66 25 20.32 25 21 25 C21.350625 23.845 21.70125 22.69 22.0625 21.5 C24.50169276 14.12321802 27.82775784 7.08322565 31 0 C33.97 0 36.94 0 40 0 C40 11.55 40 23.1 40 35 C38.02 35 36.04 35 34 35 C33.505 22.625 33.505 22.625 33 10 C32.29875 11.711875 31.5975 13.42375 30.875 15.1875 C28.09221758 21.87734082 25.07832779 28.44136346 22 35 C19.7265625 34.9765625 19.7265625 34.9765625 17 34 C15.52488726 31.41704749 14.43248984 29.12153611 13.375 26.375 C13.08882813 25.67503906 12.80265625 24.97507812 12.5078125 24.25390625 C11.96420607 22.92207049 11.42849152 21.5869623 10.90380859 20.24755859 C9.65546686 17.14322743 8.31802531 14.07539239 7 11 C6.67 18.92 6.34 26.84 6 35 C4.02 35 2.04 35 0 35 C0 23.45 0 11.9 0 0 Z " fill="#5A5A5A" transform="translate(343,290)"/>
<path d="M0 0 C3.20815845 -0.08774066 6.41600462 -0.14063706 9.625 -0.1875 C10.52863281 -0.21263672 11.43226563 -0.23777344 12.36328125 -0.26367188 C18.96426539 -0.33594542 23.19864345 0.6409629 28.375 5 C30.85899509 9.58583709 30.74903504 13.89907137 30 19 C28.00912717 22.98174566 25.83925564 25.72044197 22 28 C18.86585906 28.99474908 16.02677604 29.10561547 12.75 29.0625 C11.85796875 29.05347656 10.9659375 29.04445313 10.046875 29.03515625 C9.37140625 29.02355469 8.6959375 29.01195312 8 29 C8.08064635 32.2926882 8.19350279 35.58349221 8.3125 38.875 C8.33505859 39.81214844 8.35761719 40.74929688 8.38085938 41.71484375 C8.41630859 42.61074219 8.45175781 43.50664062 8.48828125 44.4296875 C8.51446533 45.25710449 8.54064941 46.08452148 8.56762695 46.93701172 C8.83096637 49.39327932 8.83096637 49.39327932 12 51 C12 51.66 12 52.32 12 53 C8.04 53 4.08 53 0 53 C0 52.34 0 51.68 0 51 C1.32 51 2.64 51 4 51 C4 35.16 4 19.32 4 3 C2.68 3 1.36 3 0 3 C0 2.01 0 1.02 0 0 Z " fill="#525252" transform="translate(181,233)"/>
<path d="M0 0 C3.3 0 6.6 0 10 0 C12.89279536 6.23610803 15.65471008 12.48213365 18.10546875 18.90625 C19.02560033 21.23686357 19.02560033 21.23686357 21 24 C21.26216309 23.41508789 21.52432617 22.83017578 21.79443359 22.22753906 C22.98707542 19.5679636 24.18102418 16.90897683 25.375 14.25 C25.7875 13.32960938 26.2 12.40921875 26.625 11.4609375 C27.02460938 10.57148438 27.42421875 9.68203125 27.8359375 8.765625 C28.20251465 7.94868164 28.5690918 7.13173828 28.94677734 6.29003906 C29.92061397 4.17261033 30.95770808 2.08458384 32 0 C34.97 0 37.94 0 41 0 C41 11.22 41 22.44 41 34 C39.02 34 37.04 34 35 34 C34.505 21.625 34.505 21.625 34 9 C32.3603125 12.7125 32.3603125 12.7125 30.6875 16.5 C30.34936279 17.26248047 30.01122559 18.02496094 29.6628418 18.81054688 C28.11559536 22.33115187 26.65776289 25.85824682 25.33203125 29.46875 C24 33 24 33 23 34 C21.33382885 34.04063832 19.66611905 34.042721 18 34 C14.12337129 25.74051616 10.45899259 17.44401133 7 9 C6.67 17.25 6.34 25.5 6 34 C4.02 34 2.04 34 0 34 C0 22.78 0 11.56 0 0 Z " fill="#595959" transform="translate(178,291)"/>
<path d="M0 0 C4.29 0 8.58 0 13 0 C13 0.99 13 1.98 13 3 C11.68 3.33 10.36 3.66 9 4 C9 19.18 9 34.36 9 50 C10.32 50.33 11.64 50.66 13 51 C13 51.99 13 52.98 13 54 C8.71 54 4.42 54 0 54 C0 53.01 0 52.02 0 51 C1.98 50.505 1.98 50.505 4 50 C4.33 42.74 4.66 35.48 5 28 C-0.94 28 -6.88 28 -13 28 C-12.67 35.26 -12.34 42.52 -12 50 C-10.68 50.33 -9.36 50.66 -8 51 C-8 51.99 -8 52.98 -8 54 C-12.29 54 -16.58 54 -21 54 C-21 53.01 -21 52.02 -21 51 C-19.35 51 -17.7 51 -16 51 C-16 35.49 -16 19.98 -16 4 C-17.32 4 -18.64 4 -20 4 C-20 3.01 -20 2.02 -20 1 C-16.04 1 -12.08 1 -8 1 C-8 1.99 -8 2.98 -8 4 C-9.32 4 -10.64 4 -12 4 C-12 10.93 -12 17.86 -12 25 C-6.72 24.67 -1.44 24.34 4 24 C3.9690625 20.9990625 3.9690625 20.9990625 3.9375 17.9375 C3.93228988 13.16502811 4.12806741 8.68663769 5 4 C3.35 4 1.7 4 0 4 C0 2.68 0 1.36 0 0 Z " fill="#686661" transform="translate(400,232)"/>
<path d="M0 0 C3.73971627 1.66209612 5.84490462 3.54942594 8 7 C8.84123743 12.01710973 8.96275505 17.24614201 6.125 21.625 C3.79816021 24.22558565 2.97820906 24.87555795 -0.42578125 25.30859375 C-8.07759566 25.65028506 -8.07759566 25.65028506 -10.80078125 23.73046875 C-14.67345557 19.03527953 -15.39349615 15.44520931 -15.359375 9.55078125 C-14.78039966 5.44131496 -13.00085071 3.78650423 -10 1 C-6.80657621 -0.59671189 -3.47454369 -0.37418163 0 0 Z " fill="#F8F8F8" transform="translate(161,295)"/>
<path d="M0 0 C3.02431126 1.43158996 4.56295184 2.97406464 6 6 C6.91144591 11.63824681 7.3834208 16.85237513 4.2109375 21.77734375 C1.49927291 24.50338112 -0.31783442 25.88263961 -4.18359375 26.15234375 C-8.0115332 25.78746217 -10.66029987 25.18718171 -14.0625 23.3125 C-17.28127408 17.80943465 -17.12122269 12.18480904 -16 6 C-12.63616168 0.01174293 -6.44287571 -1.66907831 0 0 Z " fill="#F8F8F8" transform="translate(327,295)"/>
<path d="M0 0 C1.98 0 3.96 0 6 0 C6 4.95 6 9.9 6 15 C11.94 15 17.88 15 24 15 C24 10.05 24 5.1 24 0 C25.98 0 27.96 0 30 0 C30 11.55 30 23.1 30 35 C28.02 35 26.04 35 24 35 C24 29.72 24 24.44 24 19 C17.73 19 11.46 19 5 19 C5 23.95 5 28.9 5 34 C3.35 34 1.7 34 0 34 C0 22.78 0 11.56 0 0 Z " fill="#545454" transform="translate(271,291)"/>
<path d="M0 0 C1.68698082 0.61344757 3.35965807 1.27095914 5 2 C5.99 2 6.98 2 8 2 C8.33820166 3.5823006 8.67035939 5.16589375 9 6.75 C9.185625 7.63171875 9.37125 8.5134375 9.5625 9.421875 C10 12 10 12 10 16 C9.01 16 8.02 16 7 16 C6.5875 14.7625 6.175 13.525 5.75 12.25 C4.38705825 8.69751757 3.30933614 6.11429809 0 4 C-3.51305609 3.67973586 -3.51305609 3.67973586 -7 5 C-12.07611187 9.8505069 -14.00638629 14.69299765 -14.3359375 21.609375 C-14.36560634 23.32270928 -14.37803743 25.03641155 -14.375 26.75 C-14.37411377 27.63872803 -14.37322754 28.52745605 -14.37231445 29.44311523 C-14.24154403 36.68195535 -13.29591116 42.98876746 -8.578125 48.73046875 C-5.93214838 50.85903905 -3.26082156 50.22882958 0 50 C2.29887008 49.80469849 2.29887008 49.80469849 4 49 C5.09506492 45.71480525 5.09960608 43.26336585 5.0625 39.8125 C5.05347656 38.72582031 5.04445313 37.63914062 5.03515625 36.51953125 C5.02355469 35.68808594 5.01195312 34.85664063 5 34 C3.68 33.67 2.36 33.34 1 33 C1 32.01 1 31.02 1 30 C5.29 30 9.58 30 14 30 C14 30.99 14 31.98 14 33 C12.515 33.495 12.515 33.495 11 34 C10.67 39.61 10.34 45.22 10 51 C7.69 51.66 5.38 52.32 3 53 C1.515 53.495 1.515 53.495 0 54 C-7.14312896 54.57605879 -7.14312896 54.57605879 -10.55078125 52.28515625 C-17.34153474 45.94928577 -19.31610787 38.79889168 -19.66650391 29.80029297 C-19.73915217 19.67853164 -19.13627933 11.97809234 -12.35546875 4.0859375 C-8.45355217 0.22806061 -5.59299534 -0.8285919 0 0 Z " fill="#6C6C6C" transform="translate(274,233)"/>
<path d="M0 0 C6.6 0 13.2 0 20 0 C20 1.65 20 3.3 20 5 C17.03 5 14.06 5 11 5 C10.34 7.97 9.68 10.94 9 14 C12.3 14 15.6 14 19 14 C19 15.65 19 17.3 19 19 C14.71 19 10.42 19 6 19 C6 22.63 6 26.26 6 30 C10.95 30 15.9 30 21 30 C21 31.32 21 32.64 21 34 C14.07 34 7.14 34 0 34 C0 22.78 0 11.56 0 0 Z " fill="#504F4E" transform="translate(388,290)"/>
<path d="M0 0 C0.86625 -0.00257813 1.7325 -0.00515625 2.625 -0.0078125 C5 0.125 5 0.125 8 1.125 C8 3.105 8 5.085 8 7.125 C7.01 6.795 6.02 6.465 5 6.125 C3.315429 6.00759878 1.62611123 5.94993455 -0.0625 5.9375 C-0.94035156 5.92332031 -1.81820312 5.90914063 -2.72265625 5.89453125 C-5.19925055 5.90270564 -5.19925055 5.90270564 -7 8.125 C-7.13226592 10.64119812 -7.13226592 10.64119812 -6 13.125 C-3.39058423 14.86254312 -3.39058423 14.86254312 -0.1875 16.125 C4.46175144 18.11834532 7.24495688 19.80610389 10 24.125 C10.0625 27.6875 10.0625 27.6875 9 31.125 C5.5671895 34.5578105 2.82100348 36.04612851 -2.06640625 36.2578125 C-3.22011719 36.25523437 -4.37382812 36.25265625 -5.5625 36.25 C-6.71878906 36.25257813 -7.87507812 36.25515625 -9.06640625 36.2578125 C-12 36.125 -12 36.125 -14 35.125 C-14 33.145 -14 31.165 -14 29.125 C-13.01 29.455 -12.02 29.785 -11 30.125 C-9.14772748 30.21857692 -7.2921282 30.25493909 -5.4375 30.25 C-3.98150391 30.25386719 -3.98150391 30.25386719 -2.49609375 30.2578125 C-0.00047047 30.29150953 -0.00047047 30.29150953 2 29.125 C1.91190224 26.71670295 1.91190224 26.71670295 1 24.125 C-1.37393771 22.35868586 -1.37393771 22.35868586 -4.3125 21.0625 C-8.21525618 19.18146531 -11.25998717 17.5388907 -14 14.125 C-14.84046996 11.02508482 -14.77314353 8.2404821 -14 5.125 C-9.64815779 1.25669582 -5.71963399 -0.01702272 0 0 Z " fill="#5A5A5A" transform="translate(247,289.875)"/>
<path d="M0 0 C4.62 0 9.24 0 14 0 C14 0.99 14 1.98 14 3 C12.35 3 10.7 3 9 3 C9 18.51 9 34.02 9 50 C13.62 49.67 18.24 49.34 23 49 C26.80429879 44.50130437 26.80429879 44.50130437 28.625 41.1875 C29.07875 40.465625 29.5325 39.74375 30 39 C30.66 39 31.32 39 32 39 C31.52372025 40.95903745 31.04388577 42.91721097 30.5625 44.875 C30.29566406 45.96554687 30.02882812 47.05609375 29.75390625 48.1796875 C29 51 29 51 28 53 C24.04900072 53.0246985 20.09803126 53.04285923 16.14697266 53.05493164 C14.14093449 53.06244036 12.13491798 53.0751447 10.12890625 53.08789062 C8.24365234 53.09272461 8.24365234 53.09272461 6.3203125 53.09765625 C4.57645264 53.10551147 4.57645264 53.10551147 2.79736328 53.11352539 C0 53 0 53 -2 52 C-2 50.35 -2 48.7 -2 47 C-3.32 47.66 -4.64 48.32 -6 49 C-5.05065487 47.32819726 -4.09026687 45.66266064 -3.125 44 C-2.59132812 43.071875 -2.05765625 42.14375 -1.5078125 41.1875 C-1.01023438 40.465625 -0.51265625 39.74375 0 39 C0.66 39 1.32 39 2 39 C1.34 42.63 0.68 46.26 0 50 C1.65 50 3.3 50 5 50 C4.67 34.82 4.34 19.64 4 4 C2.68 3.67 1.36 3.34 0 3 C0 2.01 0 1.02 0 0 Z " fill="#707070" transform="translate(151,233)"/>
<path d="M0 0 C2.33294775 -0.04241723 4.66702567 -0.04092937 7 0 C8.54156555 1.54156555 8.13468494 2.97445764 8.14526367 5.12084961 C8.15483345 6.43242287 8.15483345 6.43242287 8.16459656 7.77049255 C8.16570938 8.72150345 8.1668222 9.67251434 8.16796875 10.65234375 C8.17129715 11.62281143 8.17462555 12.59327911 8.17805481 13.59315491 C8.1831283 15.6502332 8.18546301 17.70731975 8.18530273 19.7644043 C8.18748826 22.92054744 8.20563691 26.07634071 8.22460938 29.23242188 C8.22754333 31.2265613 8.22952811 33.22070239 8.23046875 35.21484375 C8.23765427 36.16383041 8.24483978 37.11281708 8.25224304 38.09056091 C8.24916641 38.96809525 8.24608978 39.84562958 8.24291992 40.74975586 C8.24434494 41.5239537 8.24576996 42.29815155 8.24723816 43.09580994 C8 45 8 45 6 47 C3.4375 47.1875 3.4375 47.1875 1 47 C0 46 0 46 -0.12025452 44.13340759 C-0.11803391 43.31844315 -0.11581329 42.5034787 -0.11352539 41.66381836 C-0.11344986 40.7429393 -0.11337433 39.82206024 -0.11329651 38.87327576 C-0.10813522 37.87224319 -0.10297394 36.87121063 -0.09765625 35.83984375 C-0.0962413 34.82024063 -0.09482635 33.80063751 -0.09336853 32.75013733 C-0.08775097 29.47922893 -0.0751955 26.20838787 -0.0625 22.9375 C-0.05748726 20.72591244 -0.05292396 18.51432382 -0.04882812 16.30273438 C-0.03777584 10.86846643 -0.02102063 5.43423803 0 0 Z " fill="#F3F3F3" transform="translate(219,237)"/>
<path d="M0 0 C12.25039333 -0.49496539 12.25039333 -0.49496539 15.86328125 1.890625 C18.74752848 4.7379623 19.18645185 6.36520277 19.3125 10.3125 C19.28413514 13.83541599 19.06650675 14.89358919 17.125 18 C12.27879411 22.56113495 6.36142368 21.0623669 0 21 C0 14.07 0 7.14 0 0 Z " fill="#FAFAFA" transform="translate(189,237)"/>
<path d="M0 0 C8.91 0 17.82 0 27 0 C30.375 9 30.375 9 31 14 C30.34 14 29.68 14 29 14 C28.66226562 13.36191406 28.32453125 12.72382813 27.9765625 12.06640625 C27.53054688 11.24011719 27.08453125 10.41382813 26.625 9.5625 C26.18414062 8.73878906 25.74328125 7.91507813 25.2890625 7.06640625 C24.16581441 4.86533422 24.16581441 4.86533422 22 4 C20.02 4 18.04 4 16 4 C16 18.85 16 33.7 16 49 C17.32 49.33 18.64 49.66 20 50 C20 50.99 20 51.98 20 53 C15.71 53 11.42 53 7 53 C7 52.01 7 51.02 7 50 C8.65 50 10.3 50 12 50 C12 34.49 12 18.98 12 3 C4.82849242 4.81710484 4.82849242 4.81710484 1 10 C-0.24016669 12.6794645 -0.24016669 12.6794645 -1 15 C-1.66 15 -2.32 15 -3 15 C-2.88382356 13.62422639 -2.75654223 12.24938955 -2.625 10.875 C-2.55539062 10.10929688 -2.48578125 9.34359375 -2.4140625 8.5546875 C-2 6 -2 6 0 0 Z " fill="#5B5B5B" transform="translate(350,233)"/>
<path d="M0 0 C4.62 0 9.24 0 14 0 C14 0.66 14 1.32 14 2 C12.68 2.33 11.36 2.66 10 3 C10 18.18 10 33.36 10 49 C11.65 49 13.3 49 15 49 C17.15456969 46.84543031 16.26026626 41.9288373 16.31640625 38.93359375 C16.33718735 38.02497086 16.35796844 37.11634796 16.37937927 36.18019104 C16.44497672 33.26604054 16.5038068 30.35179696 16.5625 27.4375 C16.60567554 25.46678709 16.64928951 23.49608374 16.69335938 21.52539062 C16.80066843 16.68369012 16.90190675 11.84189563 17 7 C17.66 7.33 18.32 7.66 19 8 C19.495 28.295 19.495 28.295 20 49 C21.32 49.33 22.64 49.66 24 50 C24 50.99 24 51.98 24 53 C16.08 53 8.16 53 0 53 C0 52.01 0 51.02 0 50 C2.475 49.505 2.475 49.505 5 49 C5 33.82 5 18.64 5 3 C3.35 2.67 1.7 2.34 0 2 C0 1.34 0 0.68 0 0 Z " fill="#565656" transform="translate(210,234)"/>
<path d="M0 0 C2.31 0 4.62 0 7 0 C7 15.51 7 31.02 7 47 C5.02 47 3.04 47 1 47 C0 46 0 46 -0.12025452 44.13340759 C-0.11803391 43.31844315 -0.11581329 42.5034787 -0.11352539 41.66381836 C-0.11344986 40.7429393 -0.11337433 39.82206024 -0.11329651 38.87327576 C-0.10813522 37.87224319 -0.10297394 36.87121063 -0.09765625 35.83984375 C-0.0962413 34.82024063 -0.09482635 33.80063751 -0.09336853 32.75013733 C-0.08775097 29.47922893 -0.0751955 26.20838787 -0.0625 22.9375 C-0.05748726 20.72591244 -0.05292396 18.51432382 -0.04882812 16.30273438 C-0.03777584 10.86846643 -0.02102063 5.43423803 0 0 Z " fill="#F7F7F7" transform="translate(119,236)"/>
<path d="M0 0 C3.96 0 7.92 0 12 0 C12 0.99 12 1.98 12 3 C10.68 3.33 9.36 3.66 8 4 C7.67 10.93 7.34 17.86 7 25 C12.28 25 17.56 25 23 25 C23 25.66 23 26.32 23 27 C17.72 27 12.44 27 7 27 C7.33 34.26 7.66 41.52 8 49 C9.32 49.33 10.64 49.66 12 50 C12 50.99 12 51.98 12 53 C7.71 53 3.42 53 -1 53 C-1 52.01 -1 51.02 -1 50 C0.65 50 2.3 50 4 50 C4 34.49 4 18.98 4 3 C2.68 3 1.36 3 0 3 C0 2.01 0 1.02 0 0 Z " fill="#646464" transform="translate(380,233)"/>
<path d="M0 0 C0.7734375 0.3403125 0.7734375 0.3403125 1.5625 0.6875 C1.3293457 2.56469727 1.3293457 2.56469727 0.5625 4.6875 C-1.28833008 5.79663086 -1.28833008 5.79663086 -3.70703125 6.65234375 C-4.58963623 6.97468994 -5.47224121 7.29703613 -6.3815918 7.62915039 C-7.3281665 7.95778076 -8.27474121 8.28641113 -9.25 8.625 C-11.19059187 9.329387 -13.13070042 10.03510702 -15.0703125 10.7421875 C-16.00520508 11.07831055 -16.94009766 11.41443359 -17.90332031 11.76074219 C-20.8495485 12.83818749 -23.7409226 14.01630117 -26.625 15.25 C-31.59306719 17.35571813 -36.59909903 19.34985873 -41.625 21.3125 C-42.36194092 21.6019751 -43.09888184 21.8914502 -43.8581543 22.18969727 C-48.99982826 24.18856683 -54.18989322 25.98695105 -59.4375 27.6875 C-59.4375 26.6975 -59.4375 25.7075 -59.4375 24.6875 C-43.56758104 17.60772329 -27.68928214 10.54980822 -11.72680664 3.68041992 C-10.25760785 3.04319784 -8.79276822 2.39577327 -7.33374023 1.7355957 C-2.69288866 -0.34524214 -2.69288866 -0.34524214 0 0 Z " fill="#717171" transform="translate(329.4375,162.3125)"/>
<path d="M0 0 C2.97 0 5.94 0 9 0 C10.83691257 3.78187881 11.15837626 5.94568308 10 10 C10.66 10.33 11.32 10.66 12 11 C10.02 11.99 10.02 11.99 8 13 C7.34 11.68 6.68 10.36 6 9 C5.67 17.25 5.34 25.5 5 34 C3.35 34 1.7 34 0 34 C0 22.78 0 11.56 0 0 Z " fill="#4F4F4E" transform="translate(97,290)"/>
<path d="M0 0 C6.6 0 13.2 0 20 0 C20 1.65 20 3.3 20 5 C17.03 5 14.06 5 11 5 C10.34 7.97 9.68 10.94 9 14 C12.3 14 15.6 14 19 14 C19 14.33 19 14.66 19 15 C16.91695462 15.05418326 14.83350232 15.09287551 12.75 15.125 C11.00976562 15.15980469 11.00976562 15.15980469 9.234375 15.1953125 C6 15 6 15 2 13 C1.67 18.28 1.34 23.56 1 29 C0.67 29 0.34 29 0 29 C0 19.43 0 9.86 0 0 Z " fill="#5D5C5C" transform="translate(388,290)"/>
<path d="M0 0 C0.99 0 1.98 0 3 0 C2.67 2.31 2.34 4.62 2 7 C3.65 7 5.3 7 7 7 C7 8.32 7 9.64 7 11 C5.35 11 3.7 11 2 11 C0.82874626 14.7513465 0.77940135 18.49631612 0.68359375 22.390625 C0.66281265 23.09523865 0.64203156 23.79985229 0.62062073 24.52581787 C0.55546163 26.76711681 0.49639752 29.00852864 0.4375 31.25 C0.39428274 32.77344897 0.35066743 34.29688671 0.30664062 35.8203125 C0.19981509 39.54675591 0.09845361 43.27332494 0 47 C0.66 47 1.32 47 2 47 C2.66 50.3 3.32 53.6 4 57 C4.99 57.33 5.98 57.66 7 58 C7 58.99 7 59.98 7 61 C2.71 61 -1.58 61 -6 61 C-6 59.68 -6 58.36 -6 57 C-4.35 57 -2.7 57 -1 57 C-1.33 41.82 -1.66 26.64 -2 11 C-3.32 10.67 -4.64 10.34 -6 10 C-6 9.01 -6 8.02 -6 7 C-4.02 7 -2.04 7 0 7 C0 4.69 0 2.38 0 0 Z " fill="#6E6B65" transform="translate(96,225)"/>
<path d="M0 0 C0.33 0 0.66 0 1 0 C1.33 5.94 1.66 11.88 2 18 C2.33 12.39 2.66 6.78 3 1 C3.33 1 3.66 1 4 1 C4 7.6 4 14.2 4 21 C7.3 21 10.6 21 14 21 C14.495 16.545 14.495 16.545 15 12 C15.99 12 16.98 12 18 12 C18 18.93 18 25.86 18 33 C16.515 32.505 16.515 32.505 15 32 C14.67 29.36 14.34 26.72 14 24 C10.7 23.67 7.4 23.34 4 23 C4 29.93 4 36.86 4 44 C3.67 44 3.34 44 3 44 C2.67 38.06 2.34 32.12 2 26 C1.67 32.27 1.34 38.54 1 45 C0.67 45 0.34 45 0 45 C0 30.15 0 15.3 0 0 Z " fill="#828282" transform="translate(126,237)"/>
<path d="M0 0 C1.68698082 0.61344757 3.35965807 1.27095914 5 2 C5.99 2 6.98 2 8 2 C8.33820166 3.5823006 8.67035939 5.16589375 9 6.75 C9.185625 7.63171875 9.37125 8.5134375 9.5625 9.421875 C10 12 10 12 10 16 C9.01 16 8.02 16 7 16 C6.5875 14.7625 6.175 13.525 5.75 12.25 C4.38705825 8.69751757 3.30933614 6.11429809 0 4 C-4.49210959 3.83665056 -6.37525139 4.44624555 -9.75 7.4375 C-15.31779255 15.16647519 -15.58253681 24.8158099 -16 34 C-18.45005833 30.32491251 -18.33189544 27.5014806 -18.3125 23.25 C-18.32861328 22.5590625 -18.34472656 21.868125 -18.36132812 21.15625 C-18.36762221 14.45934726 -16.50102196 9.19039266 -11.9375 4.125 C-11.43089844 3.55007812 -10.92429687 2.97515625 -10.40234375 2.3828125 C-7.27694788 -0.69905418 -4.20864471 -0.21399888 0 0 Z " fill="#6A6A6A" transform="translate(274,233)"/>
<path d="M0 0 C3.20815845 -0.08774066 6.41600462 -0.14063706 9.625 -0.1875 C10.52863281 -0.21263672 11.43226563 -0.23777344 12.36328125 -0.26367188 C18.96426539 -0.33594542 23.19864345 0.6409629 28.375 5 C30.85899509 9.58583709 30.74903504 13.89907137 30 19 C28.00912717 22.98174566 25.83925564 25.72044197 22 28 C18.86585906 28.99474908 16.02677604 29.10561547 12.75 29.0625 C11.85796875 29.05347656 10.9659375 29.04445313 10.046875 29.03515625 C9.37140625 29.02355469 8.6959375 29.01195312 8 29 C8.99 28.34 9.98 27.68 11 27 C10.01 26.34 9.02 25.68 8 25 C9.32064453 24.97873047 9.32064453 24.97873047 10.66796875 24.95703125 C17.83222266 24.72791571 17.83222266 24.72791571 24.3125 22 C26.63324433 17.87423229 26.98791192 14.62141846 26 10 C24.42251492 6.75399923 24.42251492 6.75399923 21 5 C16.99900718 4.30802075 13.05614147 4.07116038 9 4 C9 3.67 9 3.34 9 3 C13.455 2.505 13.455 2.505 18 2 C12.06 1.67 6.12 1.34 0 1 C0 0.67 0 0.34 0 0 Z " fill="#747474" transform="translate(181,233)"/>
<path d="M0 0 C0.33 0 0.66 0 1 0 C1.02505615 0.57032959 1.0501123 1.14065918 1.07592773 1.72827148 C1.19156549 4.29826157 1.31443624 6.86785527 1.4375 9.4375 C1.47681641 10.33533203 1.51613281 11.23316406 1.55664062 12.15820312 C1.59853516 13.01220703 1.64042969 13.86621094 1.68359375 14.74609375 C1.72025146 15.53685303 1.75690918 16.3276123 1.79467773 17.14233398 C1.80563257 19.01401441 1.80563257 19.01401441 3 20 C13.01757293 20.75289272 13.01757293 20.75289272 22 17 C21.67 19.31 21.34 21.62 21 24 C8.46 24 -4.08 24 -17 24 C-17 23.67 -17 23.34 -17 23 C-14.03 22.67 -11.06 22.34 -8 22 C-8 21.67 -8 21.34 -8 21 C-6.02 20.67 -4.04 20.34 -2 20 C-1.97494385 19.42967041 -1.9498877 18.85934082 -1.92407227 18.27172852 C-1.80843451 15.70173843 -1.68556376 13.13214473 -1.5625 10.5625 C-1.52318359 9.66466797 -1.48386719 8.76683594 -1.44335938 7.84179688 C-1.40146484 6.98779297 -1.35957031 6.13378906 -1.31640625 5.25390625 C-1.26141968 4.06776733 -1.26141968 4.06776733 -1.20532227 2.85766602 C-1 1 -1 1 0 0 Z " fill="#5B5B5B" transform="translate(128,262)"/>
<path d="M0 0 C0.99 0.495 0.99 0.495 2 1 C2.59423828 2.85766602 2.59423828 2.85766602 3.0703125 5.25390625 C3.33134766 6.53491211 3.33134766 6.53491211 3.59765625 7.84179688 C3.77167969 8.73962891 3.94570313 9.63746094 4.125 10.5625 C4.30675781 11.46419922 4.48851562 12.36589844 4.67578125 13.29492188 C5.12486699 15.52853252 5.56589404 17.76343808 6 20 C6.33 18.68 6.66 17.36 7 16 C7.66 16 8.32 16 9 16 C9.28100502 23.16562789 8.20443195 29.94546999 7 37 C6.01 37 5.02 37 4 37 C3.51875423 34.16700602 3.03995391 31.33363343 2.5625 28.5 C2.42779297 27.70851563 2.29308594 26.91703125 2.15429688 26.1015625 C0.9734966 19.07436086 -0.15186963 12.14957078 -0.0625 5 C-0.05347656 4.05125 -0.04445313 3.1025 -0.03515625 2.125 C-0.02355469 1.42375 -0.01195312 0.7225 0 0 Z " fill="#6E6E6E" transform="translate(317,250)"/>
<path d="M0 0 C0.33 0 0.66 0 1 0 C1.33 13.2 1.66 26.4 2 40 C2.33 26.8 2.66 13.6 3 0 C3.33 0 3.66 0 4 0 C4 15.18 4 30.36 4 46 C5.65 46 7.3 46 9 46 C9 46.99 9 47.98 9 49 C4.38 49 -0.24 49 -5 49 C-5 48.34 -5 47.68 -5 47 C-3.02 46.505 -3.02 46.505 -1 46 C-0.67 30.82 -0.34 15.64 0 0 Z " fill="#7A7A7A" transform="translate(339,237)"/>
<path d="M0 0 C4.62 0 9.24 0 14 0 C14 0.99 14 1.98 14 3 C12.35 3 10.7 3 9 3 C8.67 17.85 8.34 32.7 8 48 C7.34 48 6.68 48 6 48 C5.67 33.81 5.34 19.62 5 5 C2.525 4.01 2.525 4.01 0 3 C0 2.01 0 1.02 0 0 Z " fill="#545454" transform="translate(151,233)"/>
<path d="M0 0 C0.66 0.33 1.32 0.66 2 1 C2.495 21.295 2.495 21.295 3 42 C4.32 42.33 5.64 42.66 7 43 C7 43.99 7 44.98 7 46 C-0.92 46 -8.84 46 -17 46 C-17 45.67 -17 45.34 -17 45 C-12.71 45 -8.42 45 -4 45 C-4 44.34 -4 43.68 -4 43 C-3.01 42.34 -2.02 41.68 -1 41 C-0.5267707 39.15274772 -0.5267707 39.15274772 -0.56762695 37.00927734 C-0.54783279 36.18857758 -0.52803864 35.36787781 -0.50764465 34.52230835 C-0.50125473 33.63580597 -0.49486481 32.74930359 -0.48828125 31.8359375 C-0.47033005 30.92872955 -0.45237885 30.02152161 -0.43388367 29.08682251 C-0.37960573 26.18292928 -0.34582927 23.279202 -0.3125 20.375 C-0.27934233 18.40883098 -0.24485413 16.44268391 -0.20898438 14.4765625 C-0.12386935 9.65116112 -0.05714194 4.82581045 0 0 Z " fill="#5D5D5D" transform="translate(227,241)"/>
<path d="M0 0 C3.63 0 7.26 0 11 0 C11 1.32 11 2.64 11 4 C9.68 4 8.36 4 7 4 C7 20.5 7 37 7 54 C6.67 54 6.34 54 6 54 C5.95101562 53.21753906 5.90203125 52.43507813 5.8515625 51.62890625 C5.77679688 50.61699219 5.70203125 49.60507812 5.625 48.5625 C5.52058594 47.04849609 5.52058594 47.04849609 5.4140625 45.50390625 C5.27742187 44.67761719 5.14078125 43.85132813 5 43 C4.34 42.67 3.68 42.34 3 42 C3.33 29.46 3.66 16.92 4 4 C2.68 4 1.36 4 0 4 C0 2.68 0 1.36 0 0 Z " fill="#7E7E7E" transform="translate(245,233)"/>
<path d="M0 0 C3.96 0 7.92 0 12 0 C12 0.99 12 1.98 12 3 C10.68 3.33 9.36 3.66 8 4 C7.67 10.93 7.34 17.86 7 25 C12.28 25 17.56 25 23 25 C23 25.66 23 26.32 23 27 C17.72 27 12.44 27 7 27 C7 27.66 7 28.32 7 29 C6.34 29 5.68 29 5 29 C4.67 20.75 4.34 12.5 4 4 C2.68 3.67 1.36 3.34 0 3 C0 2.01 0 1.02 0 0 Z " fill="#505050" transform="translate(380,233)"/>
<path d="M0 0 C1.08667969 0.01804688 2.17335938 0.03609375 3.29296875 0.0546875 C4.54013672 0.08949219 4.54013672 0.08949219 5.8125 0.125 C5.8125 0.785 5.8125 1.445 5.8125 2.125 C4.1625 2.455 2.5125 2.785 0.8125 3.125 C0.78744385 4.31053467 0.7623877 5.49606934 0.73657227 6.7175293 C0.64224468 11.12518718 0.54208623 15.53269678 0.44018555 19.94018555 C0.39693247 21.84607468 0.35525075 23.75200017 0.31518555 25.65795898 C0.25724929 28.40099021 0.1936226 31.14384013 0.12890625 33.88671875 C0.10383751 35.16043587 0.10383751 35.16043587 0.07826233 36.45988464 C-0.0214619 40.46207142 -0.21166551 44.21818932 -1.1875 48.125 C-1.5175 48.125 -1.8475 48.125 -2.1875 48.125 C-2.5175 33.275 -2.8475 18.425 -3.1875 3.125 C-6.1575 2.63 -6.1575 2.63 -9.1875 2.125 C-5.66070901 -0.22619399 -4.15870515 -0.08943452 0 0 Z " fill="#4D4D4D" transform="translate(342.1875,233.875)"/>
<path d="M0 0 C0.33 0 0.66 0 1 0 C1.02529951 6.22964615 1.04284549 12.45927912 1.05493164 18.68896484 C1.05996872 20.80941259 1.06679859 22.92985685 1.07543945 25.05029297 C1.08753234 28.09343322 1.09323447 31.13652766 1.09765625 34.1796875 C1.10281754 35.13181122 1.10797882 36.08393494 1.11329651 37.06491089 C1.11337204 37.94567291 1.11344757 38.82643494 1.11352539 39.73388672 C1.115746 40.51110077 1.11796661 41.28831482 1.12025452 42.08908081 C1 44 1 44 0 46 C-1.32 46 -2.64 46 -4 46 C-4 46.66 -4 47.32 -4 48 C-0.04 48 3.92 48 8 48 C8 47.34 8 46.68 8 46 C7.34 45.67 6.68 45.34 6 45 C6.99 45 7.98 45 9 45 C9 46.32 9 47.64 9 49 C4.38 49 -0.24 49 -5 49 C-6.28497537 45.14507389 -5.4052209 43.59653164 -4.0625 39.8125 C-3.68222656 38.72582031 -3.30195313 37.63914062 -2.91015625 36.51953125 C-2.60980469 35.68808594 -2.30945313 34.85664063 -2 34 C-1.67 34 -1.34 34 -1 34 C-0.67 22.78 -0.34 11.56 0 0 Z " fill="#CECECE" transform="translate(185,238)"/>
<path d="M0 0 C0.66 0 1.32 0 2 0 C4.24828052 4.49656104 4.16682272 8.07872966 4 13 C4.66 13 5.32 13 6 13 C6.33 11.02 6.66 9.04 7 7 C7.33 7 7.66 7 8 7 C8.22731216 13.93302093 7.42002108 20.2168636 6 27 C5.01 27 4.02 27 3 27 C2.49212954 24.00114586 1.99353375 21.00121874 1.5 18 C1.35691406 17.16082031 1.21382813 16.32164062 1.06640625 15.45703125 C0.21519758 10.22817799 -0.14714583 5.29724973 0 0 Z " fill="#616161" transform="translate(303,260)"/>
<path d="M0 0 C4.29 0 8.58 0 13 0 C13 0.99 13 1.98 13 3 C12.01 3.33 11.02 3.66 10 4 C9.67 9.61 9.34 15.22 9 21 C6.69 21 4.38 21 2 21 C2.680625 20.21625 3.36125 19.4325 4.0625 18.625 C7.0213132 14.3061709 5.8902379 9.89630847 5 5 C2.525 4.01 2.525 4.01 0 3 C0 2.01 0 1.02 0 0 Z " fill="#656565" transform="translate(275,263)"/>
<path d="M0 0 C4.29 0 8.58 0 13 0 C13 0.33 13 0.66 13 1 C9.04 1 5.08 1 1 1 C1 1.99 1 2.98 1 4 C2.32 4 3.64 4 5 4 C5 19.51 5 35.02 5 51 C3.68 50.67 2.36 50.34 1 50 C1.99 50 2.98 50 4 50 C3.67 38.78 3.34 27.56 3 16 C2.01 15.67 1.02 15.34 0 15 C0.66 15 1.32 15 2 15 C1.77183594 14.25234375 1.54367187 13.5046875 1.30859375 12.734375 C1.02113281 11.74953125 0.73367188 10.7646875 0.4375 9.75 C0.14746094 8.77546875 -0.14257812 7.8009375 -0.44140625 6.796875 C-1 4 -1 4 0 0 Z " fill="#E5E5E5" transform="translate(379,232)"/>
<path d="M0 0 C-0.26098633 1.87548828 -0.26098633 1.87548828 -1 4 C-3.65154165 5.79094337 -6.7002206 6.75213852 -9.6875 7.875 C-10.8930957 8.37386719 -10.8930957 8.37386719 -12.12304688 8.8828125 C-16.1618185 10.44152076 -18.26258045 11.16565805 -22.58203125 10.1953125 C-23.37996094 9.80085937 -24.17789062 9.40640625 -25 9 C-21.42423263 6.61615509 -17.71175521 4.99065258 -13.79296875 3.24609375 C-12.14042845 2.50880654 -10.49412284 1.75677204 -8.86328125 0.97265625 C-5.57679316 -0.57434574 -3.44950704 -1.5177831 0 0 Z " fill="#B7B7B7" transform="translate(331,163)"/>
<path d="M0 0 C5.94 0 11.88 0 18 0 C18 7.26 18 14.52 18 22 C17.67 21.34 17.34 20.68 17 20 C16.01 20 15.02 20 14 20 C13.92345464 15.48382401 13.89771304 11.40914783 15 7 C15.66 7 16.32 7 17 7 C17 5.02 17 3.04 17 1 C11.72 1 6.44 1 1 1 C1 7.93 1 14.86 1 22 C0.67 22 0.34 22 0 22 C0 14.74 0 7.48 0 0 Z " fill="#C9B992" transform="translate(387,260)"/>
<path d="M0 0 C8.91 0 17.82 0 27 0 C27 0.33 27 0.66 27 1 C25.68644531 1.01417969 24.37289063 1.02835938 23.01953125 1.04296875 C21.28381949 1.08987988 19.54814348 1.13812721 17.8125 1.1875 C16.94818359 1.19330078 16.08386719 1.19910156 15.19335938 1.20507812 C10.77624995 1.35739224 8.62206482 1.52199229 5.03125 4.28125 C3.30041337 6.59790826 1.88673674 8.69194564 0.6875 11.3125 C0.36136719 12.00988281 0.03523438 12.70726562 -0.30078125 13.42578125 C-0.53152344 13.94527344 -0.76226562 14.46476563 -1 15 C-1.66 15 -2.32 15 -3 15 C-2.88382356 13.62422639 -2.75654223 12.24938955 -2.625 10.875 C-2.55539062 10.10929688 -2.48578125 9.34359375 -2.4140625 8.5546875 C-2 6 -2 6 0 0 Z " fill="#616161" transform="translate(350,233)"/>
<path d="M0 0 C0.33 0 0.66 0 1 0 C1 16.17 1 32.34 1 49 C-2.23503076 45.76496924 -3.40880303 43.24319191 -5 39 C-5 38.01 -5 37.02 -5 36 C-4.01 36 -3.02 36 -2 36 C-2 36.66 -2 37.32 -2 38 C-1.34 38 -0.68 38 0 38 C0 25.46 0 12.92 0 0 Z " fill="#505050" transform="translate(250,238)"/>
<path d="M0 0 C3 4 3 4 3 6 C3.66 5.34 4.32 4.68 5 4 C5 3.01 5 2.02 5 1 C5.66 0.67 6.32 0.34 7 0 C8.32 3.63 9.64 7.26 11 11 C10.01 11 9.02 11 8 11 C7.34 11.66 6.68 12.32 6 13 C4.68 11.35 3.36 9.7 2 8 C1.67 14.27 1.34 20.54 1 27 C0.67 27 0.34 27 0 27 C0 18.09 0 9.18 0 0 Z " fill="#5C5955" transform="translate(102,297)"/>
<path d="M0 0 C6.6 0 13.2 0 20 0 C23 6 23 6 22.6875 8.375 C22.460625 8.91125 22.23375 9.4475 22 10 C19.5625 9.1875 19.5625 9.1875 17 8 C16.67 7.01 16.34 6.02 16 5 C13.03 4.505 13.03 4.505 10 4 C11.32 3.67 12.64 3.34 14 3 C14 2.34 14 1.68 14 1 C9.38 1 4.76 1 0 1 C0 0.67 0 0.34 0 0 Z " fill="#6A6A6A" transform="translate(210,233)"/>
<path d="M0 0 C0.99 0 1.98 0 3 0 C2.67 2.31 2.34 4.62 2 7 C3.65 7 5.3 7 7 7 C7 8.32 7 9.64 7 11 C5.35 11 3.7 11 2 11 C1.67 12.32 1.34 13.64 1 15 C0.5875 14.360625 0.175 13.72125 -0.25 13.0625 C-2.17810487 10.79009069 -3.11424181 10.39803561 -6 10 C-6 9.01 -6 8.02 -6 7 C-4.02 7 -2.04 7 0 7 C0 4.69 0 2.38 0 0 Z " fill="#585757" transform="translate(96,225)"/>
<path d="M0 0 C0.66 0 1.32 0 2 0 C2.28100502 7.16562789 1.20443195 13.94546999 0 21 C-0.99 21 -1.98 21 -3 21 C-3.95261487 16.23692563 -4.08333357 11.8333472 -4 7 C-3.01 7 -2.02 7 -1 7 C-0.67 4.69 -0.34 2.38 0 0 Z " fill="#5A5A5A" transform="translate(324,266)"/>
<path d="M0 0 C7.59 0 15.18 0 23 0 C26 11 26 11 26 15 C25.01 15 24.02 15 23 15 C22.80664062 14.38511719 22.61328125 13.77023438 22.4140625 13.13671875 C22.02347656 11.92435547 22.02347656 11.92435547 21.625 10.6875 C21.36976563 9.88699219 21.11453125 9.08648437 20.8515625 8.26171875 C20.01168189 5.77275472 20.01168189 5.77275472 18 3 C18.33 2.34 18.66 1.68 19 1 C12.73 1 6.46 1 0 1 C0 0.67 0 0.34 0 0 Z " fill="#686868" transform="translate(126,233)"/>
<path d="M0 0 C0.33 0 0.66 0 1 0 C1 3.63 1 7.26 1 11 C1.99 10.67 2.98 10.34 4 10 C4 15.61 4 21.22 4 27 C3.67 26.01 3.34 25.02 3 24 C2.34 24 1.68 24 1 24 C1 27.63 1 31.26 1 35 C0.67 35 0.34 35 0 35 C0 23.45 0 11.9 0 0 Z " fill="#EAEAEA" transform="translate(137,290)"/>
<path d="M0 0 C1 2 1 2 0.4765625 3.8046875 C0.05503906 4.82949219 0.05503906 4.82949219 -0.375 5.875 C-2.42098661 10.90392037 -3.18159689 15.30852697 -3.5625 20.75 C-3.64628906 21.92046875 -3.73007812 23.0909375 -3.81640625 24.296875 C-3.87699219 25.18890625 -3.93757813 26.0809375 -4 27 C-6.48731205 23.26903192 -6.26081721 20.37278041 -6.1875 16.0625 C-6.18685547 15.34642578 -6.18621094 14.63035156 -6.18554688 13.89257812 C-6.1267546 6.8440372 -6.1267546 6.8440372 -5 4 C-2.4375 1.75 -2.4375 1.75 0 0 Z " fill="#545454" transform="translate(262,240)"/>
<path d="M0 0 C1.79244141 0.01740234 1.79244141 0.01740234 3.62109375 0.03515625 C5.41740234 0.04869141 5.41740234 0.04869141 7.25 0.0625 C8.17683594 0.07410156 9.10367187 0.08570313 10.05859375 0.09765625 C10.05859375 0.42765625 10.05859375 0.75765625 10.05859375 1.09765625 C7.08859375 1.09765625 4.11859375 1.09765625 1.05859375 1.09765625 C0.39859375 4.06765625 -0.26140625 7.03765625 -0.94140625 10.09765625 C2.35859375 10.09765625 5.65859375 10.09765625 9.05859375 10.09765625 C9.05859375 10.42765625 9.05859375 10.75765625 9.05859375 11.09765625 C4.76859375 11.09765625 0.47859375 11.09765625 -3.94140625 11.09765625 C-4.0390625 3.3828125 -4.0390625 3.3828125 -3.94140625 1.09765625 C-2.94140625 0.09765625 -2.94140625 0.09765625 0 0 Z " fill="#C0B08A" transform="translate(397.94140625,293.90234375)"/>
<path d="M0 0 C0.66 0 1.32 0 2 0 C2 6.93 2 13.86 2 21 C1.01 20.67 0.02 20.34 -1 20 C-2 12.375 -2 12.375 -2 9 C-1.67 8.67 -1.34 8.34 -1 8 C-0.76924918 6.65252916 -0.58846937 5.29622435 -0.4375 3.9375 C-0.2209375 1.9884375 -0.2209375 1.9884375 0 0 Z " fill="#6D6D6D" transform="translate(142,249)"/>
<path d="M0 0 C0.33 0.66 0.66 1.32 1 2 C-4.59609791 4.93128938 -9.5744349 7.37797442 -16 7 C-16 6.01 -16 5.02 -16 4 C-5.62642369 -0.59225513 -5.62642369 -0.59225513 0 0 Z " fill="#676767" transform="translate(310,172)"/>
<path d="M0 0 C1.98 0 3.96 0 6 0 C5.52269162 1.4589426 5.04308958 2.91713496 4.5625 4.375 C4.29566406 5.18710937 4.02882812 5.99921875 3.75390625 6.8359375 C3 9 3 9 2 11 C0.68 11 -0.64 11 -2 11 C-1 3.57142857 -1 3.57142857 0 0 Z " fill="#656565" transform="translate(225,290)"/>
<path d="M0 0 C0.93423645 3.01031744 1.04449911 3.86650268 0 7 C-5.61 7 -11.22 7 -17 7 C-17 6.34 -17 5.68 -17 5 C-16.27554688 4.97421875 -15.55109375 4.9484375 -14.8046875 4.921875 C-8.63781917 4.56008539 -4.77247287 3.99855835 0 0 Z " fill="#505050" transform="translate(149,279)"/>
<path d="M0 0 C1.62477811 2.96162086 2.51695886 5.69266927 3.1875 9 C3.36667969 9.845625 3.54585938 10.69125 3.73046875 11.5625 C4.00334098 14.03021411 3.76424119 15.65849506 3 18 C3 17.01 3 16.02 3 15 C2.34 15 1.68 15 1 15 C1 16.65 1 18.3 1 20 C0.67 20 0.34 20 0 20 C-0.3902803 17.41814569 -0.76263148 14.83579017 -1.125 12.25 C-1.23714844 11.52039063 -1.34929687 10.79078125 -1.46484375 10.0390625 C-2.00206512 6.0994391 -2.3715758 3.33777335 0 0 Z " fill="#6F6F6F" transform="translate(302,245)"/>
<path d="M0 0 C0.33 0.66 0.66 1.32 1 2 C-4.39460953 4.27141454 -9.26157749 4.20413361 -15 4 C-14.01 3.34 -13.02 2.68 -12 2 C-12.99 1.34 -13.98 0.68 -15 0 C-12.87562788 -0.19448477 -10.75046809 -0.38038289 -8.625 -0.5625 C-7.44164062 -0.66691406 -6.25828125 -0.77132813 -5.0390625 -0.87890625 C-2 -1 -2 -1 0 0 Z " fill="#747474" transform="translate(204,258)"/>
<path d="M0 0 C3.63 0 7.26 0 11 0 C11 0.99 11 1.98 11 3 C10.01 3.33 9.02 3.66 8 4 C6.78130071 6.50447516 6.78130071 6.50447516 6 9 C5.7525 8.38125 5.505 7.7625 5.25 7.125 C3.79371361 4.64931313 2.62187494 4.04874998 0 3 C0 2.01 0 1.02 0 0 Z " fill="#5F5F5F" transform="translate(310,233)"/>
<path d="M0 0 C-4.78207712 3.67852086 -9.80181181 6.94224224 -15 10 C-12.37971695 1.66273576 -8.27013462 -0.70085887 0 0 Z " fill="#626262" transform="translate(273,234)"/>
<path d="M0 0 C1.7099901 3.4199802 0.94260366 7.18756505 0.75 10.9375 C0.72292969 11.76185547 0.69585937 12.58621094 0.66796875 13.43554688 C0.62800781 14.22896484 0.58804688 15.02238281 0.546875 15.83984375 C0.51432617 16.56550537 0.48177734 17.29116699 0.44824219 18.03881836 C-0.1074703 20.47021181 -1.12384502 21.41289288 -3 23 C-2.835 22.38125 -2.67 21.7625 -2.5 21.125 C-1.64329508 15.77059425 -1.27375999 10.17872003 -3 5 C-6.00007271 3.29144978 -6.00007271 3.29144978 -9 2 C-6.10765685 1.17361624 -4.11257569 1 -1 1 C-0.67 0.67 -0.34 0.34 0 0 Z " fill="#F5CC71" transform="translate(195,179)"/>
<path d="M0 0 C3 0 3 0 4.7890625 1.64453125 C5.39492187 2.35996094 6.00078125 3.07539063 6.625 3.8125 C7.23601562 4.52019531 7.84703125 5.22789062 8.4765625 5.95703125 C10 8 10 8 11 11 C7.46180427 10.42073787 5.74971757 9.15676523 3.25 6.625 C2.63640625 6.01914062 2.0228125 5.41328125 1.390625 4.7890625 C0 3 0 3 0 0 Z " fill="#F2CE78" transform="translate(137,356)"/>
<path d="M0 0 C0.33 0 0.66 0 1 0 C1 11.22 1 22.44 1 34 C-0.485 34.495 -0.485 34.495 -2 35 C-1.84152588 34.32042236 -1.68305176 33.64084473 -1.51977539 32.94067383 C-0.92631519 29.58312185 -0.78512058 26.35761939 -0.68359375 22.94921875 C-0.66281265 22.29041214 -0.64203156 21.63160553 -0.62062073 20.95283508 C-0.55564511 18.86448815 -0.49648425 16.77602388 -0.4375 14.6875 C-0.39426521 13.2649622 -0.3506494 11.84243594 -0.30664062 10.41992188 C-0.20001784 6.94673703 -0.09860652 3.47342274 0 0 Z " fill="#F3E7CC" transform="translate(387,290)"/>
<path d="M0 0 C0.66 0 1.32 0 2 0 C2.33722141 4.21526759 2.21887045 6.57789269 0.25 10.375 C-2.09018379 13.10521442 -2.67208994 13.39873894 -6 14 C-5.65066406 13.40832031 -5.30132812 12.81664062 -4.94140625 12.20703125 C-4.48636719 11.41683594 -4.03132812 10.62664062 -3.5625 9.8125 C-2.88380859 8.64654297 -2.88380859 8.64654297 -2.19140625 7.45703125 C-0.97608501 4.95068023 -0.42373425 2.74209635 0 0 Z " fill="#565656" transform="translate(209,245)"/>
<path d="M0 0 C3.96 0 7.92 0 12 0 C12.33 0.99 12.66 1.98 13 3 C8.71 3 4.42 3 0 3 C0 2.01 0 1.02 0 0 Z " fill="#F0CE7C" transform="translate(245,404)"/>
<path d="M0 0 C2.71843438 3.62457917 3.41789544 4.80884715 4 9 C3.34 8.67 2.68 8.34 2 8 C1.67 14.27 1.34 20.54 1 27 C0.67 27 0.34 27 0 27 C0 18.09 0 9.18 0 0 Z " fill="#B3A78B" transform="translate(102,297)"/>
<path d="M0 0 C0.66 0 1.32 0 2 0 C1.34 3.63 0.68 7.26 0 11 C1.32 11.33 2.64 11.66 4 12 C2.02 12.33 0.04 12.66 -2 13 C-2 11.35 -2 9.7 -2 8 C-3.98 8.99 -3.98 8.99 -6 10 C-5.05065487 8.32819726 -4.09026687 6.66266064 -3.125 5 C-2.59132812 4.071875 -2.05765625 3.14375 -1.5078125 2.1875 C-1.01023438 1.465625 -0.51265625 0.74375 0 0 Z " fill="#818181" transform="translate(151,272)"/>
<path d="M0 0 C0.99 0 1.98 0 3 0 C2.42365861 4.75481646 0.44931479 7.97048212 -2 12 C-2.66 12 -3.32 12 -4 12 C-3.45660208 7.43545749 -2.20536179 4.0271824 0 0 Z " fill="#F2CE79" transform="translate(112,178)"/>
<path d="M0 0 C6.93 0.495 6.93 0.495 14 1 C14 1.99 14 2.98 14 4 C12.22880197 3.85866501 10.45804713 3.71176792 8.6875 3.5625 C7.70136719 3.48128906 6.71523437 3.40007812 5.69921875 3.31640625 C3 3 3 3 0 2 C0 1.34 0 0.68 0 0 Z " fill="#F1CE77" transform="translate(220,402)"/>
<path d="M0 0 C0 0.99 0 1.98 0 3 C-1.76858691 3.67260351 -3.53996016 4.33788395 -5.3125 5 C-6.29863281 5.37125 -7.28476562 5.7425 -8.30078125 6.125 C-11 7 -11 7 -14 7 C-14 6.01 -14 5.02 -14 4 C-12.0429132 3.32968281 -10.08428887 2.66385317 -8.125 2 C-7.03445313 1.62875 -5.94390625 1.2575 -4.8203125 0.875 C-2 0 -2 0 0 0 Z " fill="#F3CB70" transform="translate(306,394)"/>
<path d="M0 0 C2 3 2 3 2.8125 5.625 C3.204375 6.40875 3.59625 7.1925 4 8 C6.54775306 8.89386164 6.54775306 8.89386164 9 9 C8.01 9.495 8.01 9.495 7 10 C7.33 11.32 7.66 12.64 8 14 C6.25 13.9375 6.25 13.9375 4 13 C0.81829392 8.49258305 -0.54990817 5.63655874 0 0 Z " fill="#DBC081" transform="translate(110,315)"/>
<path d="M0 0 C0.99 0.33 1.98 0.66 3 1 C3.96070434 3.88211302 4.10581883 5.69850044 4.0625 8.6875 C4.05347656 9.49574219 4.04445313 10.30398437 4.03515625 11.13671875 C4.02355469 11.75160156 4.01195312 12.36648437 4 13 C3.34 13 2.68 13 2 13 C-0.28571429 4.57142857 -0.28571429 4.57142857 0 0 Z " fill="#F1CD70" transform="translate(400,218)"/>
<path d="M0 0 C0.66 0 1.32 0 2 0 C0.44298069 4.67105792 -2.08447373 8.08705685 -5 12 C-5.66 11.67 -6.32 11.34 -7 11 C-5.51131293 6.39860359 -3.25370145 3.49772906 0 0 Z " fill="#F1CC71" transform="translate(126,157)"/>
<path d="M0 0 C0 0.99 0 1.98 0 3 C-2.88211302 3.96070434 -4.69850044 4.10581883 -7.6875 4.0625 C-8.89986328 4.04896484 -8.89986328 4.04896484 -10.13671875 4.03515625 C-11.05904297 4.01775391 -11.05904297 4.01775391 -12 4 C-12 3.34 -12 2.68 -12 2 C-10.56342755 1.66269158 -9.12569907 1.33030409 -7.6875 1 C-6.88699219 0.814375 -6.08648437 0.62875 -5.26171875 0.4375 C-3 0 -3 0 0 0 Z " fill="#F2CE77" transform="translate(281,401)"/>
<path d="M0 0 C2.22825644 2.22825644 2.69239369 3.65761628 3.625 6.625 C3.88539063 7.44226563 4.14578125 8.25953125 4.4140625 9.1015625 C4.60742188 9.72804688 4.80078125 10.35453125 5 11 C3.68 11 2.36 11 1 11 C0.01 8.69 -0.98 6.38 -2 4 C-1.34 4 -0.68 4 0 4 C0 2.68 0 1.36 0 0 Z " fill="#686868" transform="translate(238,252)"/>
<path d="M0 0 C0 0.99 0 1.98 0 3 C-0.66 3.66 -1.32 4.32 -2 5 C-1.01 5.33 -0.02 5.66 1 6 C1 6.99 1 7.98 1 9 C-1.64 9 -4.28 9 -7 9 C-5.44499019 5.18315774 -2.96404505 2.80804268 0 0 Z " fill="#F5C459" transform="translate(138,173)"/>
<path d="M0 0 C4.21073233 1.50383297 5.83237117 4.20664956 8 8 C8 8.99 8 9.98 8 11 C7.01 11 6.02 11 5 11 C3.61328125 9.35546875 3.61328125 9.35546875 2.3125 7.1875 C1.87550781 6.47980469 1.43851562 5.77210938 0.98828125 5.04296875 C0 3 0 3 0 0 Z " fill="#F1CF7A" transform="translate(371,155)"/>
<path d="M0 0 C3.63 0 7.26 0 11 0 C10.67 0.99 10.34 1.98 10 3 C6.37 3 2.74 3 -1 3 C-0.67 2.01 -0.34 1.02 0 0 Z " fill="#F4CF7A" transform="translate(233,96)"/>
<path d="M0 0 C2.84550012 0.66010476 5.52325999 1.51724966 8.25 2.5625 C8.95640625 2.83191406 9.6628125 3.10132813 10.390625 3.37890625 C10.92171875 3.58386719 11.4528125 3.78882813 12 4 C12 4.66 12 5.32 12 6 C7.80530429 5.40075776 3.99000166 4.42500059 0 3 C0 2.01 0 1.02 0 0 Z " fill="#F0CE74" transform="translate(197,395)"/>
<path d="M0 0 C-1.59231949 4.29926263 -4.39313359 6.35005733 -8 9 C-8.99 9 -9.98 9 -11 9 C-9.55936614 4.67809842 -4.74032109 0 0 0 Z " fill="#F2CD70" transform="translate(348,370)"/>
<path d="M0 0 C0 0.66 0 1.32 0 2 C-0.66 2 -1.32 2 -2 2 C-2.268125 2.598125 -2.53625 3.19625 -2.8125 3.8125 C-4.00987475 6.01819033 -5.04478984 7.43583187 -7 9 C-7.99 9 -8.98 9 -10 9 C-8.13405729 4.41995879 -5.20913241 0 0 0 Z " fill="#F1CC71" transform="translate(366,354)"/>
<path d="M0 0 C0.99 0.99 1.98 1.98 3 3 C2.67 3.99 2.34 4.98 2 6 C1.8535286 7.55266653 1.75305926 9.10995662 1.68359375 10.66796875 C1.64169922 11.56064453 1.59980469 12.45332031 1.55664062 13.37304688 C1.51732422 14.30181641 1.47800781 15.23058594 1.4375 16.1875 C1.39431641 17.12787109 1.35113281 18.06824219 1.30664062 19.03710938 C1.20061335 21.35792854 1.09854971 23.67885325 1 26 C0.67 26 0.34 26 0 26 C0 17.42 0 8.84 0 0 Z " fill="#D0D0D0" transform="translate(184,299)"/>
<path d="M0 0 C0.66 0 1.32 0 2 0 C1.68950274 1.43793392 1.3765224 2.8753318 1.0625 4.3125 C0.88847656 5.11300781 0.71445313 5.91351563 0.53515625 6.73828125 C0 9 0 9 -1 12 C-1.66 12 -2.32 12 -3 12 C-2.88541307 10.56163249 -2.75790884 9.12429034 -2.625 7.6875 C-2.55539063 6.88699219 -2.48578125 6.08648437 -2.4140625 5.26171875 C-2 3 -2 3 0 0 Z " fill="#F0CC71" transform="translate(103,201)"/>
<path d="M0 0 C0.66 0 1.32 0 2 0 C5.42857143 7.28571429 5.42857143 7.28571429 5 12 C4.01 11.67 3.02 11.34 2 11 C1.34 7.37 0.68 3.74 0 0 Z " fill="#F2CD74" transform="translate(394,196)"/>
<path d="M0 0 C0.99 0 1.98 0 3 0 C2.67 2.31 2.34 4.62 2 7 C3.65 7 5.3 7 7 7 C7 7.33 7 7.66 7 8 C3.04 8 -0.92 8 -5 8 C-5.33 8.66 -5.66 9.32 -6 10 C-6 9.01 -6 8.02 -6 7 C-4.02 7 -2.04 7 0 7 C0 4.69 0 2.38 0 0 Z " fill="#C9B37A" transform="translate(96,225)"/>
<path d="M0 0 C3.3 0 6.6 0 10 0 C10.33 0.99 10.66 1.98 11 3 C7.37 3 3.74 3 0 3 C0 2.01 0 1.02 0 0 Z " fill="#F3CE75" transform="translate(255,96)"/>
<path d="M0 0 C3.77727089 1.81309003 7.37269822 3.9073259 11 6 C11 6.99 11 7.98 11 9 C6.39860359 7.51131293 3.49772906 5.25370145 0 2 C0 1.34 0 0.68 0 0 Z " fill="#F0CB6C" transform="translate(156,373)"/>
<path d="M0 0 C-1.49128001 3.79598549 -3.65733441 5.71720399 -7 8 C-7.99 8 -8.98 8 -10 8 C-8.18341255 3.37595922 -5.13109685 0 0 0 Z " fill="#F2CD73" transform="translate(161,125)"/>
<path d="M0 0 C-1 3 -1 3 -2.7421875 4.16796875 C-3.44601562 4.50441406 -4.14984375 4.84085937 -4.875 5.1875 C-5.57367188 5.53167969 -6.27234375 5.87585938 -6.9921875 6.23046875 C-9 7 -9 7 -12 7 C-11 4 -11 4 -9.00390625 2.83203125 C-8.19824219 2.49558594 -7.39257812 2.15914063 -6.5625 1.8125 C-5.75941406 1.46832031 -4.95632813 1.12414062 -4.12890625 0.76953125 C-2 0 -2 0 0 0 Z " fill="#F1CA66" transform="translate(328,384)"/>
<path d="M0 0 C4.20763224 1.5027258 5.8027758 4.23332995 8 8 C8 8.66 8 9.32 8 10 C4.20401451 8.50871999 2.28279601 6.34266559 0 3 C0 2.01 0 1.02 0 0 Z " fill="#F1CB72" transform="translate(122,338)"/>
<path d="M0 0 C3.5875213 1.33250791 6.8364623 2.830717 10 5 C10 5.66 10 6.32 10 7 C6.06380262 6.43768609 3.20807554 5.38314183 0 3 C0 2.01 0 1.02 0 0 Z " fill="#F0CE75" transform="translate(177,386)"/>
<path d="M0 0 C0.66 0 1.32 0 2 0 C2.96070434 2.88211302 3.10581883 4.69850044 3.0625 7.6875 C3.05347656 8.49574219 3.04445313 9.30398438 3.03515625 10.13671875 C3.02355469 10.75160156 3.01195312 11.36648438 3 12 C2.34 12 1.68 12 1 12 C-0.3271261 8.0186217 -0.06915913 4.14954773 0 0 Z " fill="#545454" transform="translate(303,260)"/>
<path d="M0 0 C3.82868919 1.45226142 5.2538953 3.33318013 7 7 C7 8.32 7 9.64 7 11 C6.34 11 5.68 11 5 11 C2 5.25 2 5.25 2 3 C1.34 3 0.68 3 0 3 C0 2.01 0 1.02 0 0 Z " fill="#F1CB6A" transform="translate(383,174)"/>
<path d="M0 0 C-0.33 1.32 -0.66 2.64 -1 4 C-1.99 4 -2.98 4 -4 4 C-4.33 3.34 -4.66 2.68 -5 2 C-7.31 2.66 -9.62 3.32 -12 4 C-9.8923766 -0.2152468 -4.26296995 -1.87570678 0 0 Z " fill="#7B7B7B" transform="translate(331,163)"/>
<path d="M0 0 C0.66 0 1.32 0 2 0 C1.38479725 3.99881788 -0.60268669 6.80358226 -3 10 C-3.66 10 -4.32 10 -5 10 C-4.49890042 5.61537866 -3.01704885 3.1999003 0 0 Z " fill="#F2CA69" transform="translate(378,335)"/>
<path d="M0 0 C-0.47241991 4.25177923 -2.84964071 6.29969203 -6 9 C-6.99 9 -7.98 9 -9 9 C-7.45665977 5.21180126 -4.44676575 0 0 0 Z " fill="#F0CA6D" transform="translate(143,140)"/>
<path d="M0 0 C4.1666604 0.47348414 6.92884715 1.04696841 10 4 C10 4.66 10 5.32 10 6 C6.33118845 5.29445932 3.29549466 3.72264494 0 2 C0 1.34 0 0.68 0 0 Z " fill="#F3CE78" transform="translate(319,113)"/>
<path d="M0 0 C0.33 0 0.66 0 1 0 C1.27599507 1.76696843 1.51996915 3.53896215 1.75 5.3125 C1.88921875 6.29863281 2.0284375 7.28476562 2.171875 8.30078125 C2 11 2 11 0.015625 12.85546875 C-0.64953125 13.23316406 -1.3146875 13.61085938 -2 14 C-1.67 13.01 -1.34 12.02 -1 11 C-0.77820215 9.10787263 -0.59385985 7.21115528 -0.4375 5.3125 C-0.35371094 4.31863281 -0.26992188 3.32476562 -0.18359375 2.30078125 C-0.12300781 1.54152344 -0.06242187 0.78226562 0 0 Z M-4 14 C-3.34 14.33 -2.68 14.66 -2 15 C-2.33 15.99 -2.66 16.98 -3 18 C-3.66 18 -4.32 18 -5 18 C-5.33 17.01 -5.66 16.02 -6 15 C-5.34 14.67 -4.68 14.34 -4 14 Z " fill="#777777" transform="translate(280,268)"/>
<path d="M0 0 C0.33 0 0.66 0 1 0 C1 4.29 1 8.58 1 13 C-0.98 13.33 -2.96 13.66 -5 14 C-4.0409375 12.7625 -4.0409375 12.7625 -3.0625 11.5 C-0.53586919 7.76808594 -0.30639772 4.44276697 0 0 Z " fill="#4D4D4D" transform="translate(282,270)"/>
<path d="M0 0 C0 0.66 0 1.32 0 2 C-6.625 5 -6.625 5 -10 5 C-9 2 -9 2 -6.6875 0.8125 C-4 0 -4 0 0 0 Z " fill="#F1CD6D" transform="translate(199,105)"/>
<path d="M0 0 C7.42857143 1 7.42857143 1 11 2 C11 2.66 11 3.32 11 4 C7.37 3.67 3.74 3.34 0 3 C0 2.01 0 1.02 0 0 Z " fill="#F3CC72" transform="translate(277,98)"/>
<path d="M0 0 C0.99 0.495 0.99 0.495 2 1 C2.4140625 3.06640625 2.4140625 3.06640625 2.625 5.5625 C2.69976562 6.38878906 2.77453125 7.21507812 2.8515625 8.06640625 C2.92503906 9.02353516 2.92503906 9.02353516 3 10 C2.01 10.33 1.02 10.66 0 11 C0 7.37 0 3.74 0 0 Z " fill="#565656" transform="translate(317,250)"/>
<path d="M0 0 C2 0 2 0 3.5078125 1.4609375 C4.04148437 2.09257812 4.57515625 2.72421875 5.125 3.375 C5.66382813 4.00148437 6.20265625 4.62796875 6.7578125 5.2734375 C8 7 8 7 8 9 C4.56404834 7.47291037 1.88087546 5.40072955 -1 3 C-0.67 2.01 -0.34 1.02 0 0 Z " fill="#F1CA6C" transform="translate(356,138)"/>
<path d="M0 0 C3.43927579 1.2419607 6.25207819 2.55740284 9 5 C9 5.66 9 6.32 9 7 C5.13066838 6.42676569 2.84777943 4.61046448 0 2 C0 1.34 0 0.68 0 0 Z " fill="#F1CA67" transform="translate(338,124)"/>
<path d="M0 0 C1.48206495 0.254496 2.96068615 0.52911762 4.4375 0.8125 C5.67306641 1.03873047 5.67306641 1.03873047 6.93359375 1.26953125 C7.95646484 1.63111328 7.95646484 1.63111328 9 2 C9.33 2.99 9.66 3.98 10 5 C6.62294375 4.46274105 3.303314 3.88935377 0 3 C0 2.01 0 1.02 0 0 Z " fill="#F1CC6F" transform="translate(299,104)"/>
<path d="M0 0 C0 0.66 0 1.32 0 2 C-3.87684087 3.19287411 -6.91621923 4 -11 4 C-11 3.01 -11 2.02 -11 1 C-7.26513121 0.4254048 -3.78706732 0 0 0 Z " fill="#F1CA6F" transform="translate(221,99)"/>
<path d="M0 0 C2.64 0 5.28 0 8 0 C7.67 0.99 7.34 1.98 7 3 C4.36 3 1.72 3 -1 3 C-0.67 2.01 -0.34 1.02 0 0 Z " fill="#5C5C5C" transform="translate(267,284)"/>
<path d="M0 0 C0 0.66 0 1.32 0 2 C-6.75 6 -6.75 6 -9 6 C-9 5.01 -9 4.02 -9 3 C-3.375 0 -3.375 0 0 0 Z " fill="#F2C96C" transform="translate(179,114)"/>
<path d="M0 0 C1.7074998 1.28062485 3.37373596 2.61767557 5 4 C5 4.66 5 5.32 5 6 C2.36 6 -0.28 6 -3 6 C-2.01 5.67 -1.02 5.34 0 5 C0 3.35 0 1.7 0 0 Z " fill="#F4C863" transform="translate(209,176)"/>
<path d="M0 0 C0.66 0 1.32 0 2 0 C1.34 2.64 0.68 5.28 0 8 C-0.99 7.67 -1.98 7.34 -3 7 C-1.125 1.125 -1.125 1.125 0 0 Z " fill="#6B6B6B" transform="translate(181,272)"/>
<path d="M0 0 C1.32789969 2.1871289 2.04752686 3.47720456 1.8125 6.0625 C0.89199398 8.25755282 -0.21596223 9.44866281 -2 11 C-1.125 3.375 -1.125 3.375 0 0 Z " fill="#CCCCCC" transform="translate(315,250)"/>
<path d="M0 0 C0.33 0 0.66 0 1 0 C1 1.98 1 3.96 1 6 C0.34 6 -0.32 6 -1 6 C-1.33 7.32 -1.66 8.64 -2 10 C-2.1953125 3.9453125 -2.1953125 3.9453125 -2 2 C-1.34 1.34 -0.68 0.68 0 0 Z " fill="#676767" transform="translate(320,259)"/>
<path d="M0 0 C2 2 2 2 2 5 C1.34 5 0.68 5 0 5 C-0.33 5.66 -0.66 6.32 -1 7 C-1.625 4.625 -1.625 4.625 -2 2 C-1.34 1.34 -0.68 0.68 0 0 Z " fill="#676767" transform="translate(233,241)"/>
<path d="M0 0 C0.53625 0.226875 1.0725 0.45375 1.625 0.6875 C-3.79038462 3.76442308 -3.79038462 3.76442308 -6.75 3.375 C-7.554375 3.0346875 -7.554375 3.0346875 -8.375 2.6875 C-2.95961538 -0.38942308 -2.95961538 -0.38942308 0 0 Z " fill="#F0F0F0" transform="translate(318.375,168.3125)"/>
</svg>
